<svg width="243" height="85" fill="none" xmlns="http://www.w3.org/2000/svg"><path d="M2.055 4.11a2.055 2.055 0 100-4.11 2.055 2.055 0 000 4.11zm29.752 0a2.055 2.055 0 100-4.11 2.055 2.055 0 000 4.11zm29.753 0a2.055 2.055 0 100-4.11 2.055 2.055 0 000 4.11zm29.751 0a2.055 2.055 0 100-4.11 2.055 2.055 0 000 4.11zm29.752 0a2.055 2.055 0 100-4.11 2.055 2.055 0 000 4.11zm29.75 0a2.055 2.055 0 100-4.11 2.055 2.055 0 000 4.11zm31.807-2.055a2.063 2.063 0 01-2.055 2.056 2.063 2.063 0 01-2.055-2.056c0-1.128.926-2.055 2.055-2.055 1.146 0 2.055.927 2.055 2.055zm27.697 2.055a2.055 2.055 0 100-4.11 2.055 2.055 0 000 4.11zm29.752 0a2.055 2.055 0 100-4.11 2.055 2.055 0 000 4.11zM2.055 24.108a2.055 2.055 0 100-4.11 2.055 2.055 0 000 4.11zm29.752 0a2.055 2.055 0 100-4.11 2.055 2.055 0 000 4.11zm29.753 0a2.055 2.055 0 100-4.111 2.055 2.055 0 000 4.11zm29.751 0a2.055 2.055 0 100-4.11 2.055 2.055 0 000 4.11zm29.752 0a2.055 2.055 0 100-4.11 2.055 2.055 0 000 4.11zm29.75 0a2.055 2.055 0 100-4.11 2.055 2.055 0 000 4.11zm31.807-2.056a2.063 2.063 0 01-2.055 2.056 2.063 2.063 0 01-2.055-2.056c0-1.128.926-2.055 2.055-2.055 1.146 0 2.055.927 2.055 2.055zm27.697 2.056a2.055 2.055 0 100-4.11 2.055 2.055 0 000 4.11zm29.752 0a2.055 2.055 0 100-4.11 2.055 2.055 0 000 4.11zM2.055 44.105a2.055 2.055 0 100-4.11 2.055 2.055 0 000 4.11zm29.752 0a2.055 2.055 0 100-4.11 2.055 2.055 0 000 4.11zm29.753 0a2.055 2.055 0 100-4.11 2.055 2.055 0 000 4.11zm29.751 0a2.055 2.055 0 100-4.11 2.055 2.055 0 000 4.11zm29.752 0a2.055 2.055 0 100-4.11 2.055 2.055 0 000 4.11zm29.75 0a2.055 2.055 0 100-4.11 2.055 2.055 0 000 4.11zm31.807-2.055a2.063 2.063 0 01-2.055 2.055 2.063 2.063 0 01-2.055-2.055c0-1.129.926-2.055 2.055-2.055 1.146 0 2.055.926 2.055 2.055zm27.697 2.055a2.055 2.055 0 100-4.11 2.055 2.055 0 000 4.11zm29.752 0a2.055 2.055 0 100-4.11 2.055 2.055 0 000 4.11zM2.055 64.102a2.055 2.055 0 100-4.11 2.055 2.055 0 000 4.11zm29.752 0a2.055 2.055 0 100-4.11 2.055 2.055 0 000 4.11zm29.753 0a2.055 2.055 0 100-4.11 2.055 2.055 0 000 4.11zm29.751 0a2.055 2.055 0 100-4.11 2.055 2.055 0 000 4.11zm29.752 0a2.055 2.055 0 100-4.11 2.055 2.055 0 000 4.11zm29.75 0a2.055 2.055 0 100-4.11 2.055 2.055 0 000 4.11zm31.807-2.055a2.063 2.063 0 01-2.055 2.055 2.063 2.063 0 01-2.055-2.055c0-1.129.926-2.055 2.055-2.055 1.146 0 2.055.926 2.055 2.055zm27.697 2.055a2.055 2.055 0 100-4.11 2.055 2.055 0 000 4.11zm29.752 0a2.055 2.055 0 100-4.11 2.055 2.055 0 000 4.11zM2.055 84.1a2.055 2.055 0 100-4.11 2.055 2.055 0 000 4.11zm29.752 0a2.055 2.055 0 100-4.11 2.055 2.055 0 000 4.11zm29.753 0a2.055 2.055 0 100-4.11 2.055 2.055 0 000 4.11zm29.751 0a2.055 2.055 0 100-4.11 2.055 2.055 0 000 4.11zm29.752 0a2.055 2.055 0 100-4.11 2.055 2.055 0 000 4.11zm29.75 0a2.055 2.055 0 100-4.11 2.055 2.055 0 000 4.11zm31.807-2.055a2.063 2.063 0 01-2.055 2.055 2.063 2.063 0 01-2.055-2.055c0-1.13.926-2.056 2.055-2.056 1.146 0 2.055.927 2.055 2.056zm27.697 2.055a2.055 2.055 0 100-4.11 2.055 2.055 0 000 4.11zm29.752 0a2.055 2.055 0 100-4.11 2.055 2.055 0 000 4.11z" fill="#000" fill-opacity=".21"/></svg>