<svg width="384" height="84" fill="none" xmlns="http://www.w3.org/2000/svg"><path d="M383.156 21.915c.24 2.278-.752 4.698-3.007 7.24-2.254 2.543-5.727 5.155-10.323 7.793-9.188 5.274-22.758 10.593-39.725 15.65-33.925 10.112-81.333 19.149-134.178 24.707-52.844 5.559-101.095 6.583-136.382 3.752-17.647-1.416-32.027-3.795-42.111-7.043-5.044-1.624-8.985-3.456-11.719-5.473-2.735-2.018-4.208-4.178-4.448-6.456-.24-2.278.752-4.698 3.007-7.24 2.255-2.543 5.728-5.155 10.324-7.793 9.188-5.274 22.758-10.593 39.724-15.65C88.244 21.29 135.651 12.253 188.496 6.695 241.341 1.136 289.591.11 324.878 2.943c17.648 1.416 32.027 3.795 42.112 7.042 5.044 1.625 8.984 3.457 11.718 5.474 2.735 2.018 4.209 4.178 4.448 6.456z" stroke="#DA4848"/></svg>