<svg width="16" height="16" fill="none" xmlns="http://www.w3.org/2000/svg"><circle cx="8" cy="8" r="7.5" stroke="#FFCB4A"/><path d="M7.885 2.974a.6.6 0 01.45.19.6.6 0 01.191.45c0 .178-.063.33-.19.458a.603.603 0 01-.45.19.623.623 0 01-.458-.19.623.623 0 01-.19-.457c0-.178.061-.328.184-.45a.63.63 0 01.463-.191zm.527 3.04v4.672c0 .364.025.607.076.73a.581.581 0 00.235.267c.106.059.296.088.571.088V12H6.47v-.229c.283 0 .474-.027.571-.082a.55.55 0 00.229-.273c.059-.127.088-.37.088-.73v-2.24c0-.631-.019-1.04-.057-1.226-.03-.135-.076-.228-.14-.28a.384.384 0 00-.26-.082 1.26 1.26 0 00-.431.096l-.09-.229 1.753-.71h.28z" fill="#FFCB4A"/></svg>