<svg width="24" height="23" fill="none" xmlns="http://www.w3.org/2000/svg"><path d="M17.569 0H7.054C3.632 0 .848 2.78.848 6.197v10.5c0 3.416 2.784 6.196 6.206 6.196h10.515c3.422 0 6.206-2.78 6.206-6.197V6.197C23.775 2.78 20.991 0 17.57 0zM12.31 17.706c-3.456 0-6.269-2.808-6.269-6.26 0-3.451 2.813-6.26 6.27-6.26 3.456 0 6.269 2.809 6.269 6.26 0 3.452-2.813 6.26-6.27 6.26zm6.42-11.043a1.853 1.853 0 01-1.853-1.85 1.853 1.853 0 013.705 0c0 1.02-.831 1.85-1.853 1.85z" fill="#B6CBD8"/><path d="M12.31 6.53a4.927 4.927 0 00-4.925 4.917 4.927 4.927 0 004.925 4.917 4.927 4.927 0 004.925-4.917 4.927 4.927 0 00-4.925-4.918zm6.421-2.225a.509.509 0 100 1.017.509.509 0 000-1.017z" fill="#B6CBD8"/></svg>