<svg width="316" height="237" fill="none" xmlns="http://www.w3.org/2000/svg"><g filter="url(#filter0_d_0_551)"><path d="M94.325 207.129l-3.333 4.077c-9.628-8.031-31.034-28.985-39.626-48.554-10.74-24.463-11.48-39.289-11.48-39.659 0-.371-2.592-35.211 7.036-55.226 2.84-5.904 5.265-10.713 7.262-14.531a150.899 150.899 0 014.478-8.206c.919-1.59 1.575-2.643 1.963-3.208a100.03 100.03 0 00-1.963 3.208c-1.112 1.922-2.607 4.629-4.478 8.206-5.615 11.066-11.66 26.125-12.076 38.623-.74 22.238-1.852 32.616 6.296 55.226 8.147 22.609 28.145 50.036 45.921 60.044z" fill="url(#paint0_linear_0_551)"/><path d="M62.106 40.34c-1.11-6.178 1.482-19.422 20.74-22.98-1.606 7.166-7.037 21.868-20.74 22.98z" fill="url(#paint1_linear_0_551)"/><path d="M52.849 50.347c-4.566-4.304-11.415-17.136 1.948-31.463 2.97 6.715 8.404 22.41-1.948 31.463z" fill="url(#paint2_linear_0_551)"/><path d="M42.606 70.947c-5.217-3.484-14.104-14.997-3.308-31.349 4.044 6.127 12.011 20.699 3.308 31.349z" fill="url(#paint3_linear_0_551)"/><path d="M36.541 93.47c-5.782-2.43-16.651-10.507-9.615-32.004 5.133 5.247 16.14 19.894 9.615 32.004z" fill="url(#paint4_linear_0_551)"/><path d="M34.745 115.859c-6.141-1.272-18.358-7.11-15.578-29.56 6.044 4.163 19.658 16.421 15.578 29.56z" fill="url(#paint5_linear_0_551)"/><path d="M38.78 139.246c-6.27.152-19.489-2.767-21.858-25.264 6.829 2.686 22.861 11.542 21.858 25.264z" fill="url(#paint6_linear_0_551)"/><path d="M47.665 163.022c-5.953 1.973-21.85 1.112-29.997-21.23 7.315.577 27.034 5.663 29.997 21.23z" fill="url(#paint7_linear_0_551)"/><path d="M61.366 182.46c-5.34 3.291-21.01 6.11-34.071-13.758 7.251-1.122 27.611-.71 34.07 13.758z" fill="url(#paint8_linear_0_551)"/><path d="M75.582 199.393c-4.34 4.531-18.794 11.21-36.435-4.725 6.735-2.913 26.542-7.648 36.435 4.725z" fill="url(#paint9_linear_0_551)"/><path d="M57.87 53.157c2.145-5.898 6.459-15.041 29.049-11.705-4.814 6.3-18.146 16.308-29.05 11.705z" fill="url(#paint10_linear_0_551)"/><path d="M49.941 72.791c1.484-6.098 4.764-15.661 27.584-14.837-4.09 6.793-16.24 18.21-27.584 14.837z" fill="url(#paint11_linear_0_551)"/><path d="M44.03 92.714c1.026-6.192 3.587-15.972 26.405-16.848-3.575 7.079-14.843 19.368-26.406 16.848z" fill="url(#paint12_linear_0_551)"/><path d="M43.59 115.95c-.674-6.24.74-17.42 22.22-22.98-1.112 8.896-10.407 22.298-22.22 22.98z" fill="url(#paint13_linear_0_551)"/><path d="M47.024 136.928c-.843-5.41-3.065-17.271 17.674-26.166.66 8.94-5.555 23.721-17.674 26.166z" fill="url(#paint14_linear_0_551)"/><path d="M54.88 157.997c-1.713-5.2-6.227-16.537 12.782-28.704 2.11 8.713-1.224 24.311-12.781 28.704z" fill="url(#paint15_linear_0_551)"/><path d="M65.775 176.682c-2.498-4.872-8.71-15.374 8.187-30.339 3.432 8.281 2.552 24.207-8.187 30.339z" fill="url(#paint16_linear_0_551)"/><path d="M80.933 193.17c-3.248-4.407-11.064-13.774 3.214-31.26 4.716 7.622 6.4 23.483-3.215 31.26z" fill="url(#paint17_linear_0_551)"/><path d="M212.18 207.129l3.333 4.077c9.628-8.031 31.034-28.985 39.626-48.554 10.739-24.463 11.48-39.289 11.48-39.659 0-.371 2.592-35.211-7.036-55.226-2.841-5.904-5.265-10.713-7.262-14.531a150.863 150.863 0 00-4.477-8.206c-.919-1.59-1.576-2.643-1.964-3.208a103.68 103.68 0 011.964 3.208c1.111 1.922 2.606 4.629 4.477 8.206 5.614 11.066 11.66 26.125 12.076 38.623.741 22.238 1.852 32.616-6.296 55.226-8.147 22.609-28.145 50.036-45.921 60.044z" fill="url(#paint18_linear_0_551)"/><path d="M244.397 40.34c1.111-6.178-1.481-19.422-20.739-22.98 1.605 7.166 7.037 21.868 20.739 22.98z" fill="url(#paint19_linear_0_551)"/><path d="M253.657 50.347c4.565-4.304 11.414-17.136-1.949-31.463-2.97 6.715-8.404 22.41 1.949 31.463z" fill="url(#paint20_linear_0_551)"/><path d="M263.899 70.947c5.217-3.484 14.104-14.997 3.308-31.349-4.045 6.127-12.012 20.699-3.308 31.349z" fill="url(#paint21_linear_0_551)"/><path d="M269.966 93.47c5.782-2.43 16.651-10.507 9.614-32.004-5.132 5.247-16.14 19.894-9.614 32.004z" fill="url(#paint22_linear_0_551)"/><path d="M271.758 115.859c6.141-1.272 18.358-7.11 15.579-29.56-6.045 4.163-19.659 16.421-15.579 29.56z" fill="url(#paint23_linear_0_551)"/><path d="M267.725 139.246c6.269.152 19.489-2.767 21.858-25.264-6.829 2.686-22.861 11.542-21.858 25.264z" fill="url(#paint24_linear_0_551)"/><path d="M258.84 163.022c5.953 1.973 21.85 1.112 29.997-21.23-7.315.577-27.034 5.663-29.997 21.23z" fill="url(#paint25_linear_0_551)"/><path d="M245.141 182.46c5.34 3.291 21.009 6.11 34.071-13.758-7.252-1.122-27.612-.71-34.071 13.758z" fill="url(#paint26_linear_0_551)"/><path d="M230.924 199.393c4.34 4.531 18.794 11.21 36.435-4.725-6.736-2.913-26.542-7.648-36.435 4.725z" fill="url(#paint27_linear_0_551)"/><path d="M248.636 53.157c-2.146-5.898-6.46-15.041-29.05-11.705 4.814 6.3 18.146 16.308 29.05 11.705z" fill="url(#paint28_linear_0_551)"/><path d="M256.565 72.791c-1.484-6.098-4.764-15.661-27.585-14.837 4.091 6.793 16.24 18.21 27.585 14.837z" fill="url(#paint29_linear_0_551)"/><path d="M262.476 92.714c-1.026-6.192-3.587-15.972-26.406-16.848 3.576 7.079 14.843 19.368 26.406 16.848z" fill="url(#paint30_linear_0_551)"/><path d="M262.915 115.95c.674-6.24-.74-17.42-22.22-22.98 1.111 8.896 10.406 22.298 22.22 22.98z" fill="url(#paint31_linear_0_551)"/><path d="M259.479 136.928c.843-5.41 3.065-17.271-17.674-26.166-.66 8.94 5.555 23.721 17.674 26.166z" fill="url(#paint32_linear_0_551)"/><path d="M251.626 157.997c1.714-5.2 6.227-16.537-12.781-28.704-2.111 8.713 1.223 24.311 12.781 28.704z" fill="url(#paint33_linear_0_551)"/><path d="M240.73 176.682c2.498-4.872 8.711-15.374-8.186-30.339-3.433 8.281-2.552 24.207 8.186 30.339z" fill="url(#paint34_linear_0_551)"/><path d="M225.573 193.17c3.247-4.407 11.064-13.774-3.214-31.26-4.716 7.622-6.401 23.483 3.214 31.26z" fill="url(#paint35_linear_0_551)"/></g><defs><linearGradient id="paint0_linear_0_551" x1="66.947" y1="41.822" x2="66.947" y2="211.206" gradientUnits="userSpaceOnUse"><stop stop-color="#fff"/><stop offset="1" stop-color="#ADADAD"/></linearGradient><linearGradient id="paint1_linear_0_551" x1="72.367" y1="17.36" x2="72.367" y2="40.34" gradientUnits="userSpaceOnUse"><stop stop-color="#fff"/><stop offset="1" stop-color="#ADADAD"/></linearGradient><linearGradient id="paint2_linear_0_551" x1="52.94" y1="18.884" x2="52.94" y2="50.347" gradientUnits="userSpaceOnUse"><stop stop-color="#fff"/><stop offset="1" stop-color="#ADADAD"/></linearGradient><linearGradient id="paint3_linear_0_551" x1="40.355" y1="39.598" x2="40.355" y2="70.947" gradientUnits="userSpaceOnUse"><stop stop-color="#fff"/><stop offset="1" stop-color="#ADADAD"/></linearGradient><linearGradient id="paint4_linear_0_551" x1="31.592" y1="61.466" x2="31.592" y2="93.47" gradientUnits="userSpaceOnUse"><stop stop-color="#fff"/><stop offset="1" stop-color="#ADADAD"/></linearGradient><linearGradient id="paint5_linear_0_551" x1="27.128" y1="86.299" x2="27.128" y2="115.859" gradientUnits="userSpaceOnUse"><stop stop-color="#fff"/><stop offset="1" stop-color="#ADADAD"/></linearGradient><linearGradient id="paint6_linear_0_551" x1="27.873" y1="113.982" x2="27.873" y2="139.252" gradientUnits="userSpaceOnUse"><stop stop-color="#fff"/><stop offset="1" stop-color="#ADADAD"/></linearGradient><linearGradient id="paint7_linear_0_551" x1="32.666" y1="141.792" x2="32.666" y2="163.718" gradientUnits="userSpaceOnUse"><stop stop-color="#fff"/><stop offset="1" stop-color="#ADADAD"/></linearGradient><linearGradient id="paint8_linear_0_551" x1="44.33" y1="168.313" x2="44.33" y2="184.795" gradientUnits="userSpaceOnUse"><stop stop-color="#fff"/><stop offset="1" stop-color="#ADADAD"/></linearGradient><linearGradient id="paint9_linear_0_551" x1="57.364" y1="191.298" x2="57.364" y2="204.723" gradientUnits="userSpaceOnUse"><stop stop-color="#fff"/><stop offset="1" stop-color="#ADADAD"/></linearGradient><linearGradient id="paint10_linear_0_551" x1="72.394" y1="40.74" x2="72.394" y2="54.329" gradientUnits="userSpaceOnUse"><stop stop-color="#fff"/><stop offset="1" stop-color="#ADADAD"/></linearGradient><linearGradient id="paint11_linear_0_551" x1="63.733" y1="57.904" x2="63.733" y2="73.401" gradientUnits="userSpaceOnUse"><stop stop-color="#fff"/><stop offset="1" stop-color="#ADADAD"/></linearGradient><linearGradient id="paint12_linear_0_551" x1="57.232" y1="75.866" x2="57.232" y2="93.049" gradientUnits="userSpaceOnUse"><stop stop-color="#fff"/><stop offset="1" stop-color="#ADADAD"/></linearGradient><linearGradient id="paint13_linear_0_551" x1="54.638" y1="92.971" x2="54.638" y2="115.95" gradientUnits="userSpaceOnUse"><stop stop-color="#fff"/><stop offset="1" stop-color="#ADADAD"/></linearGradient><linearGradient id="paint14_linear_0_551" x1="55.63" y1="110.762" x2="55.63" y2="136.928" gradientUnits="userSpaceOnUse"><stop stop-color="#fff"/><stop offset="1" stop-color="#ADADAD"/></linearGradient><linearGradient id="paint15_linear_0_551" x1="60.707" y1="129.293" x2="60.707" y2="157.997" gradientUnits="userSpaceOnUse"><stop stop-color="#fff"/><stop offset="1" stop-color="#ADADAD"/></linearGradient><linearGradient id="paint16_linear_0_551" x1="69.164" y1="146.343" x2="69.164" y2="176.682" gradientUnits="userSpaceOnUse"><stop stop-color="#fff"/><stop offset="1" stop-color="#ADADAD"/></linearGradient><linearGradient id="paint17_linear_0_551" x1="81.895" y1="161.91" x2="81.895" y2="193.17" gradientUnits="userSpaceOnUse"><stop stop-color="#fff"/><stop offset="1" stop-color="#ADADAD"/></linearGradient><linearGradient id="paint18_linear_0_551" x1="239.558" y1="41.822" x2="239.558" y2="211.206" gradientUnits="userSpaceOnUse"><stop stop-color="#fff"/><stop offset="1" stop-color="#ADADAD"/></linearGradient><linearGradient id="paint19_linear_0_551" x1="234.136" y1="17.36" x2="234.136" y2="40.34" gradientUnits="userSpaceOnUse"><stop stop-color="#fff"/><stop offset="1" stop-color="#ADADAD"/></linearGradient><linearGradient id="paint20_linear_0_551" x1="253.565" y1="18.884" x2="253.565" y2="50.347" gradientUnits="userSpaceOnUse"><stop stop-color="#fff"/><stop offset="1" stop-color="#ADADAD"/></linearGradient><linearGradient id="paint21_linear_0_551" x1="266.15" y1="39.598" x2="266.15" y2="70.947" gradientUnits="userSpaceOnUse"><stop stop-color="#fff"/><stop offset="1" stop-color="#ADADAD"/></linearGradient><linearGradient id="paint22_linear_0_551" x1="274.914" y1="61.466" x2="274.914" y2="93.47" gradientUnits="userSpaceOnUse"><stop stop-color="#fff"/><stop offset="1" stop-color="#ADADAD"/></linearGradient><linearGradient id="paint23_linear_0_551" x1="279.375" y1="86.299" x2="279.375" y2="115.859" gradientUnits="userSpaceOnUse"><stop stop-color="#fff"/><stop offset="1" stop-color="#ADADAD"/></linearGradient><linearGradient id="paint24_linear_0_551" x1="278.632" y1="113.982" x2="278.632" y2="139.252" gradientUnits="userSpaceOnUse"><stop stop-color="#fff"/><stop offset="1" stop-color="#ADADAD"/></linearGradient><linearGradient id="paint25_linear_0_551" x1="273.838" y1="141.792" x2="273.838" y2="163.718" gradientUnits="userSpaceOnUse"><stop stop-color="#fff"/><stop offset="1" stop-color="#ADADAD"/></linearGradient><linearGradient id="paint26_linear_0_551" x1="262.176" y1="168.313" x2="262.176" y2="184.795" gradientUnits="userSpaceOnUse"><stop stop-color="#fff"/><stop offset="1" stop-color="#ADADAD"/></linearGradient><linearGradient id="paint27_linear_0_551" x1="249.141" y1="191.298" x2="249.141" y2="204.723" gradientUnits="userSpaceOnUse"><stop stop-color="#fff"/><stop offset="1" stop-color="#ADADAD"/></linearGradient><linearGradient id="paint28_linear_0_551" x1="234.111" y1="40.74" x2="234.111" y2="54.329" gradientUnits="userSpaceOnUse"><stop stop-color="#fff"/><stop offset="1" stop-color="#ADADAD"/></linearGradient><linearGradient id="paint29_linear_0_551" x1="242.773" y1="57.904" x2="242.773" y2="73.401" gradientUnits="userSpaceOnUse"><stop stop-color="#fff"/><stop offset="1" stop-color="#ADADAD"/></linearGradient><linearGradient id="paint30_linear_0_551" x1="249.273" y1="75.866" x2="249.273" y2="93.049" gradientUnits="userSpaceOnUse"><stop stop-color="#fff"/><stop offset="1" stop-color="#ADADAD"/></linearGradient><linearGradient id="paint31_linear_0_551" x1="251.867" y1="92.971" x2="251.867" y2="115.95" gradientUnits="userSpaceOnUse"><stop stop-color="#fff"/><stop offset="1" stop-color="#ADADAD"/></linearGradient><linearGradient id="paint32_linear_0_551" x1="250.874" y1="110.762" x2="250.874" y2="136.928" gradientUnits="userSpaceOnUse"><stop stop-color="#fff"/><stop offset="1" stop-color="#ADADAD"/></linearGradient><linearGradient id="paint33_linear_0_551" x1="245.799" y1="129.293" x2="245.799" y2="157.997" gradientUnits="userSpaceOnUse"><stop stop-color="#fff"/><stop offset="1" stop-color="#ADADAD"/></linearGradient><linearGradient id="paint34_linear_0_551" x1="237.342" y1="146.343" x2="237.342" y2="176.682" gradientUnits="userSpaceOnUse"><stop stop-color="#fff"/><stop offset="1" stop-color="#ADADAD"/></linearGradient><linearGradient id="paint35_linear_0_551" x1="224.61" y1="161.91" x2="224.61" y2="193.17" gradientUnits="userSpaceOnUse"><stop stop-color="#fff"/><stop offset="1" stop-color="#ADADAD"/></linearGradient><filter id="filter0_d_0_551" x=".922" y=".36" width="314.662" height="235.846" filterUnits="userSpaceOnUse" color-interpolation-filters="sRGB"><feFlood flood-opacity="0" result="BackgroundImageFix"/><feColorMatrix in="SourceAlpha" values="0 0 0 0 0 0 0 0 0 0 0 0 0 0 0 0 0 0 127 0" result="hardAlpha"/><feOffset dx="5" dy="4"/><feGaussianBlur stdDeviation="10.5"/><feComposite in2="hardAlpha" operator="out"/><feColorMatrix values="0 0 0 0 0 0 0 0 0 0 0 0 0 0 0 0 0 0 0.19 0"/><feBlend in2="BackgroundImageFix" result="effect1_dropShadow_0_551"/><feBlend in="SourceGraphic" in2="effect1_dropShadow_0_551" result="shape"/></filter></defs></svg>