<svg width="189" height="49" fill="none" xmlns="http://www.w3.org/2000/svg"><ellipse cx="24.23" cy="19.507" rx="4.472" ry="5.491" fill="#53ADCC"/><path d="M28.703 19.507c0 3.033-2.003 5.491-4.473 5.491-2.47 0-4.472-2.458-4.472-5.491 0-1.233.33-2.37.89-3.287 1.998.364 4.936-.518 6.387-.991 1.017 1.007 1.668 2.549 1.668 4.278z" fill="url(#paint0_linear_0_167)"/><path fill-rule="evenodd" clip-rule="evenodd" d="M1.607 20.218c.59-.75 1.227-1.561 1.563-2.466.441-1.187.354-1.734.213-2.616a14.273 14.273 0 01-.213-2.508c0-1.444.987-5.713 3.708-8.718C9.88 1.25 14.634-.336 20.268.06c0 0 3.84-.02 7.869 2.69 3.006 2.022 6.418 6.2 6.793 9.624.878 8.01-2.83 12.115-2.83 12.115-2.05.421-3.191.027-2.916 0 3.17-1.5 5.123-12.455-5.18-12.653-2.095 0-7.784 1.019-7.615 8.152.17 7.133 6.936 7.133 6.936 7.133 2.456.013 5.746-.34 6.17-.396.425-.057.566.396.113 1.387 0 0-.934 1.699-1.387 3.765-.36 1.644.158 3.45.37 4.19.055.19.09.31.083.339-.028.141-.163.336-.453.481L14.663 42.18c-.517.188-.508-.247-.49-1.111.004-.178.008-.374.008-.587 0 0-.141-4.133-1.67-4.982-1.012-.563-2.62-.503-4.085-.449-.747.028-1.455.054-2.029-.004-1.698-.172-2.208-.849-2.519-1.472-.226-.451-.14-1.32-.064-2.076.03-.286.056-.557.064-.783.015-.43-.32-.713-.631-.974-.281-.237-.542-.456-.501-.752.042-.31.063-.381.08-.441.019-.061.033-.11.061-.38.028-.265-.109-.393-.259-.532-.154-.143-.32-.299-.335-.629-.012-.265.09-.493.194-.729.153-.343.313-.704.145-1.224-.118-.366-.54-.584-.996-.82-.637-.327-1.336-.688-1.353-1.53-.015-.784.621-1.593 1.324-2.487zm9.178-8.1h4.642c.625 0 1.132.508 1.132 1.133v.17c0 .532-.43.962-.962.962a.962.962 0 00-.963.963v8.237c0 .532.431.962.963.962.531 0 .962.431.962.963v.198c0 .64-.52 1.16-1.16 1.16h-4.586c-.64 0-1.16-.52-1.16-1.16v-.269c0-.492.399-.892.891-.892a.891.891 0 00.892-.891v-8.379c0-.492-.4-.892-.892-.892a.892.892 0 01-.891-.891v-.24c0-.626.506-1.133 1.132-1.133z" fill="url(#paint1_radial_0_167)"/><path fill-rule="evenodd" clip-rule="evenodd" d="M2.119 24.41s2.69-1.302 5.661-4.812a9.26 9.26 0 013.624-2.634v6.7c0 .492-.4.891-.892.891s-.891.4-.891.892v.269c0 .64.52 1.16 1.16 1.16h4.586c.64 0 1.16-.52 1.16-1.16v-.198a.962.962 0 00-.962-.963.962.962 0 01-.963-.962v-7.391c.852-.086 1.608-.086 2.19-.086h.205c-.43 1.033-.678 2.309-.64 3.882.17 7.133 6.934 7.133 6.934 7.133 2.457.013 5.747-.34 6.171-.396.425-.057.566.396.113 1.387 0 0-.934 1.698-1.387 3.765-.36 1.644.158 3.45.37 4.19.055.19.09.31.083.339-.028.141-.163.336-.453.48L14.631 42.19c-.517.188-.508-.247-.49-1.111.004-.178.008-.374.008-.587 0 0-.141-4.133-1.67-4.982-1.012-.563-2.62-.503-4.085-.449-.747.028-1.455.054-2.029-.004-1.698-.172-2.208-.85-2.519-1.472-.226-.452-.139-1.32-.063-2.076.028-.287.055-.557.063-.783.015-.43-.32-.713-.631-.974-.281-.237-.542-.456-.501-.753.042-.308.063-.38.08-.44.019-.061.033-.11.061-.38.028-.266-.109-.393-.259-.532-.154-.143-.32-.299-.335-.629-.012-.265.09-.493.194-.729.153-.343.313-.704.145-1.224-.084-.261-.323-.447-.619-.617l.138-.038zm27.752-10.432c3.255 3.313 1.591 9.427-.72 10.52-.274.028.867.422 2.917 0 0 0 3.708-4.104 2.83-12.114a6.982 6.982 0 00-.189-1.005 48.894 48.894 0 01-4.838 2.599z" fill="url(#paint2_radial_0_167)"/><path d="M4.445 12.11c-.198-2.66 2.377-7.104 2.377-7.104-.295-.394-3.01 4.618-3.199 7.25-.188 2.633.655 2.6.312 4.865C3.59 19.385.736 21.395.736 22.584s2.066 1.302 2.434 2.35c.368 1.047-.594 1.528-.368 2.15.227.623.538.51.623.85.085.34-.255.538-.113 1.104.141.566.792.764 1.047 1.415.255.651-.34 2.435-.255 2.576.085.142 1.133-1.698 1.161-2.576.028-.877-.736-1.047-.99-1.642-.255-.594.31-.877.084-1.443-.226-.566-.594-.198-.764-.595-.17-.396.68-1.104.51-2.038-.17-.934-1.784-1.245-2.039-2.151-.254-.906 2.945-3.538 2.945-5.576s-.369-2.236-.566-4.897z" fill="url(#paint3_radial_0_167)" fill-opacity=".8"/><path d="M13.079 2.332c-6.51 2.01-6.567 6.567-7.19 6.34-.623-.226.198-5.576 6.85-7.557 6.652-1.982 10.898.425 10.756.736-.141.311-3.906-1.529-10.416.481z" fill="url(#paint4_radial_0_167)"/><path d="M6.204 33.83c-1.415.028-1.443-.453-1.698-.397-.255.057-.028.878 1.444 1.16 1.472.284 5.151-.622 6.935.539 1.783 1.16 1.528 5.293 1.783 5.123.255-.17.764-5.605-1.047-6.567-1.812-.962-6.001.113-7.417.142z" fill="url(#paint5_radial_0_167)"/><path d="M27.514 33.883c-.113-1.953.596-3.482.396-3.652-.2-.17-1.811 2.189-1.925 4.067-.113 1.88-.817 1.922-1.779 2.615-.962.693-1.787 1.773-1.787 1.773s5.434-2.086 5.604-2.425c.17-.34-.396-.425-.51-2.378z" fill="url(#paint6_linear_0_167)"/><path d="M33.077 8.588C29.567 2.473 23.085.69 22.717.86c-.368.17 6.001 3.453 8.86 7.954 2.859 4.5 1.415 12.002 1.585 12.596.17.595 3.425-6.708-.085-12.822z" fill="url(#paint7_radial_0_167)"/><g clip-path="url(#clip0_0_167)"><path d="M66.924 32.11l-.06-9.631-4.562 7.73h-3.12L54.62 22.81v9.3h-6.452V10.975h5.822l6.842 11.262 6.662-11.262h5.822l.06 21.136h-6.452zm24.94-3.683h-7.982l-1.41 3.684h-7.203l9.183-21.136h6.962l9.183 21.136h-7.322l-1.41-3.684zm-1.95-5.133l-2.04-5.314-2.041 5.314h4.08zm24.656 8.817l-3.631-5.647-3.541 5.647h-8.073l7.593-10.659-7.323-10.477h7.953l3.571 5.314 3.481-5.314h7.622L114.93 21.18l7.743 10.93h-8.103zm9.729-21.136h7.082V32.11h-7.082V10.975zm29.997 21.136l-.06-9.632-4.561 7.73h-3.121l-4.562-7.398v9.3h-6.452V10.975h5.822l6.842 11.262 6.662-11.262h5.822l.06 21.136h-6.452zm24.941-3.684h-7.983l-1.41 3.684h-7.202l9.183-21.136h6.962l9.183 21.136h-7.323l-1.41-3.684zm-1.951-5.133l-2.04-5.314-2.041 5.314h4.081z" fill="url(#paint8_linear_0_167)"/></g><defs><radialGradient id="paint1_radial_0_167" cx="0" cy="0" r="1" gradientUnits="userSpaceOnUse" gradientTransform="matrix(.21073 -32.89923 27.10084 .1736 17.673 21.111)"><stop stop-color="#3DB3D7"/><stop offset="1" stop-color="#286A8A"/></radialGradient><radialGradient id="paint2_radial_0_167" cx="0" cy="0" r="1" gradientUnits="userSpaceOnUse" gradientTransform="matrix(0 28.4525 -40.2006 0 18.697 21.543)"><stop stop-color="#05A4D7"/><stop offset="1" stop-color="#003D66"/></radialGradient><radialGradient id="paint3_radial_0_167" cx="0" cy="0" r="1" gradientUnits="userSpaceOnUse" gradientTransform="rotate(66.56 -14.976 11.496) scale(9.25078 4.60861)"><stop stop-color="#328BAD"/><stop offset=".745" stop-color="#004F77"/></radialGradient><radialGradient id="paint4_radial_0_167" cx="0" cy="0" r="1" gradientUnits="userSpaceOnUse" gradientTransform="rotate(-102.529 7.727 -2.858) scale(3.74742 11.5051)"><stop stop-color="#3189AB"/><stop offset="1" stop-color="#fff" stop-opacity="0"/></radialGradient><radialGradient id="paint5_radial_0_167" cx="0" cy="0" r="1" gradientUnits="userSpaceOnUse" gradientTransform="rotate(125.838 -2.69 19.995) scale(7.54206 11.3779)"><stop stop-color="#005079"/><stop offset="1" stop-color="#00537B" stop-opacity=".29"/></radialGradient><radialGradient id="paint7_radial_0_167" cx="0" cy="0" r="1" gradientUnits="userSpaceOnUse" gradientTransform="matrix(-1.10397 17.55001 -15.31742 -.96353 33.288 13.757)"><stop stop-color="#004C74"/><stop offset="1" stop-color="#1D6587" stop-opacity=".21"/></radialGradient><linearGradient id="paint0_linear_0_167" x1="24.23" y1="15.229" x2="24.23" y2="24.998" gradientUnits="userSpaceOnUse"><stop stop-color="#009FCB"/><stop offset="1" stop-color="#009ECA"/></linearGradient><linearGradient id="paint6_linear_0_167" x1="25.267" y1="30.288" x2="25.267" y2="38.686" gradientUnits="userSpaceOnUse"><stop stop-color="#014E78"/><stop offset="1" stop-color="#014E79" stop-opacity=".37"/></linearGradient><linearGradient id="paint8_linear_0_167" x1="118.069" y1="10.975" x2="118.069" y2="32.111" gradientUnits="userSpaceOnUse"><stop stop-color="#009CCE"/><stop offset="1" stop-color="#003D66"/></linearGradient><clipPath id="clip0_0_167"><path fill="#fff" transform="translate(47.957 10.975)" d="M0 0h141.043v21.136H0z"/></clipPath></defs></svg>