<svg width="29" height="17" fill="none" xmlns="http://www.w3.org/2000/svg"><path d="M28.846 15.353a2.059 2.059 0 00-.098-.194c-.503-.931-1.465-2.074-2.884-3.429l-.03-.03-.015-.016-.015-.016h-.015c-.645-.63-1.052-1.055-1.223-1.272-.313-.414-.383-.832-.212-1.257.12-.32.574-.997 1.359-2.032.413-.548.74-.987.981-1.318 1.742-2.38 2.497-3.9 2.265-4.561l-.09-.155c-.06-.093-.216-.178-.468-.256-.252-.078-.573-.09-.966-.039L23.086.81c-.07-.026-.17-.023-.302.008l-.196.047-.076.038-.06.047a.679.679 0 00-.166.163c-.06.077-.11.168-.15.271a25.644 25.644 0 01-1.616 3.49 33.205 33.205 0 01-1.027 1.669c-.312.47-.574.817-.785 1.039-.212.222-.403.4-.574.535-.171.135-.302.191-.393.17a7.01 7.01 0 01-.256-.061 1.022 1.022 0 01-.34-.38 1.736 1.736 0 01-.174-.606 6.836 6.836 0 01-.053-.628c-.004-.176-.002-.424.008-.745.01-.32.015-.537.015-.651 0-.393.008-.82.023-1.28.015-.46.027-.825.038-1.094.01-.269.015-.553.015-.853 0-.3-.018-.535-.053-.706a2.461 2.461 0 00-.159-.496.83.83 0 00-.309-.373 1.72 1.72 0 00-.506-.21c-.533-.123-1.213-.19-2.038-.2-1.873-.021-3.075.103-3.609.372a2.043 2.043 0 00-.574.465c-.18.228-.206.352-.075.372.604.093 1.031.316 1.283.667l.09.186c.071.135.142.373.212.714.07.341.116.719.136 1.132.05.755.05 1.402 0 1.94s-.098.956-.143 1.256a2.62 2.62 0 01-.386 1.07.263.263 0 01-.075.078c-.13.052-.267.078-.408.078-.14 0-.312-.073-.513-.217a3.661 3.661 0 01-.627-.598 7.986 7.986 0 01-.732-1.062 18.712 18.712 0 01-.846-1.614l-.241-.45c-.151-.29-.357-.71-.619-1.264a24.725 24.725 0 01-.695-1.606 1.02 1.02 0 00-.362-.496L5.692.979a1.025 1.025 0 00-.241-.132 1.57 1.57 0 00-.347-.1L.967.776c-.423 0-.71.099-.861.295l-.06.093a.514.514 0 00-.046.25c0 .113.03.253.09.418a51.827 51.827 0 001.971 4.22c.71 1.355 1.326 2.446 1.85 3.273a38.674 38.674 0 001.6 2.343c.544.734.903 1.205 1.08 1.412.176.207.314.361.415.465l.377.372c.242.248.597.546 1.065.892.468.347.986.688 1.555 1.024.569.336 1.23.61 1.986.822a6.69 6.69 0 002.204.256h1.737c.352-.03.619-.145.8-.34l.06-.079c.04-.061.078-.157.113-.286.035-.13.053-.272.053-.427a5.25 5.25 0 01.098-1.202c.075-.357.161-.626.257-.807a1.982 1.982 0 01.581-.682.981.981 0 01.12-.054c.242-.083.527-.003.854.24.328.243.634.543.921.9.287.357.632.758 1.035 1.202.402.445.755.776 1.056.993l.302.186c.202.124.464.238.786.342.322.103.603.129.845.077l3.865-.062c.383 0 .68-.065.891-.194.212-.13.337-.271.378-.427.04-.154.042-.33.007-.527a1.989 1.989 0 00-.106-.411z" fill="#B6CBD8"/></svg>