<svg width="417" height="372" fill="none" xmlns="http://www.w3.org/2000/svg"><path d="M0 322.047l9.267-24.763L0 272.522l9.267-24.763L0 222.996l9.267-24.762L0 173.471l9.267-24.762L0 123.946l9.267-24.774L0 74.41l9.267-24.763L0 24.873 9.307 0l.458.21L.537 24.874l9.268 24.774L.537 74.41l9.268 24.762-9.268 24.774 9.268 24.763-9.268 24.762 9.268 24.763-9.268 24.762 9.268 24.763-9.268 24.763 9.268 24.762-9.268 24.763 9.268 24.762-9.308 24.874-.457-.211 9.227-24.663L0 322.047z" fill="#287E74" fill-opacity=".36"/><path d="M8.84 322.047l9.267-24.763-9.267-24.762 9.267-24.763-9.267-24.763 9.267-24.762-9.267-24.763 9.267-24.762-9.267-24.763 9.267-24.774L8.84 74.41l9.267-24.763L8.84 24.873 18.147 0l.458.21-9.228 24.663 9.268 24.774L9.377 74.41l9.268 24.762-9.268 24.774 9.268 24.763-9.268 24.762 9.268 24.763-9.268 24.762 9.268 24.763-9.268 24.763 9.268 24.762-9.268 24.763 9.268 24.762-9.308 24.874-.458-.211 9.228-24.663-9.267-24.762z" fill="#287E74" fill-opacity=".36"/><path d="M17.677 322.047l9.268-24.763-9.268-24.762 9.268-24.763-9.268-24.763 9.268-24.762-9.268-24.763 9.268-24.762-9.268-24.763 9.268-24.774-9.268-24.762 9.268-24.763-9.268-24.774L26.985 0l.458.21-9.228 24.663 9.267 24.774-9.267 24.763 9.267 24.762-9.267 24.774 9.267 24.763-9.267 24.762 9.267 24.763-9.267 24.762 9.267 24.763-9.267 24.763 9.267 24.762-9.267 24.763 9.267 24.762-9.307 24.874-.458-.211 9.228-24.663-9.268-24.762z" fill="#287E74" fill-opacity=".36"/><path d="M26.517 322.047l9.268-24.763-9.268-24.762 9.268-24.763-9.268-24.763 9.268-24.762-9.268-24.763 9.268-24.762-9.268-24.763 9.268-24.774-9.268-24.762 9.268-24.763-9.268-24.774L35.825 0l.457.21-9.227 24.663 9.267 24.774-9.267 24.763 9.267 24.762-9.267 24.774 9.267 24.763-9.267 24.762 9.267 24.763-9.267 24.762 9.267 24.763-9.267 24.763 9.267 24.762-9.267 24.763 9.267 24.762-9.307 24.874-.458-.211 9.228-24.663-9.268-24.762z" fill="#287E74" fill-opacity=".36"/><path d="M35.357 322.047l9.267-24.763-9.267-24.762 9.267-24.763-9.267-24.763 9.267-24.762-9.267-24.763 9.267-24.762-9.267-24.763 9.267-24.774-9.267-24.762 9.267-24.763-9.267-24.774L44.664 0l.468.21-9.237 24.663 9.277 24.774-9.277 24.763 9.277 24.762-9.277 24.774 9.277 24.763-9.277 24.762 9.277 24.763-9.277 24.762 9.277 24.763-9.277 24.763 9.277 24.762-9.277 24.763 9.277 24.762-9.317 24.874-.458-.211 9.227-24.663-9.267-24.762z" fill="#287E74" fill-opacity=".36"/><path d="M44.197 322.047l9.277-24.762-9.277-24.763 9.277-24.763-9.277-24.762 9.277-24.763-9.277-24.763 9.277-24.762-9.277-24.763 9.277-24.773-9.277-24.763 9.277-24.763-9.277-24.773L53.514 0l.458.21-9.238 24.664 9.278 24.773-9.278 24.763 9.278 24.763-9.278 24.773 9.278 24.763-9.278 24.762 9.278 24.763-9.278 24.763 9.278 24.762-9.278 24.763 9.278 24.763-9.278 24.762 9.278 24.763-9.318 24.873-.457-.21 9.237-24.663-9.277-24.763z" fill="#287E74" fill-opacity=".36"/><path d="M53.035 322.047l9.277-24.763-9.277-24.762 9.277-24.763-9.277-24.763 9.277-24.762-9.277-24.763 9.277-24.762-9.277-24.763 9.277-24.774-9.277-24.762 9.277-24.763-9.277-24.774L62.352 0l.458.21-9.238 24.663 9.278 24.774-9.278 24.763 9.278 24.762-9.278 24.774 9.278 24.763-9.278 24.762 9.278 24.763-9.278 24.762 9.278 24.763-9.278 24.763 9.278 24.762-9.278 24.763 9.278 24.762-9.318 24.874-.457-.211 9.237-24.663-9.277-24.762z" fill="#287E74" fill-opacity=".36"/><path d="M61.874 322.047l9.278-24.763-9.278-24.762 9.278-24.763-9.278-24.763 9.278-24.762-9.278-24.763 9.278-24.762-9.278-24.763 9.278-24.774-9.278-24.762 9.278-24.763-9.278-24.774L71.192 0l.458.21-9.228 24.663 9.267 24.774-9.267 24.763 9.267 24.762-9.267 24.774 9.267 24.763-9.267 24.762 9.267 24.763-9.267 24.762 9.267 24.763-9.267 24.763 9.267 24.762-9.267 24.763 9.267 24.762-9.307 24.874-.468-.211 9.238-24.663-9.278-24.762z" fill="#287E74" fill-opacity=".36"/><path d="M70.724 322.047l9.268-24.763-9.268-24.762 9.268-24.763-9.268-24.763 9.268-24.762-9.268-24.763 9.268-24.762-9.268-24.763 9.268-24.774-9.268-24.762 9.268-24.763-9.268-24.774L80.032 0l.458.21-9.228 24.663 9.267 24.774-9.267 24.763 9.267 24.762-9.267 24.774 9.267 24.763-9.267 24.762 9.267 24.763-9.267 24.762 9.267 24.763-9.267 24.763 9.267 24.762-9.267 24.763 9.267 24.762-9.307 24.874-.458-.211 9.228-24.663-9.268-24.762z" fill="#287E74" fill-opacity=".36"/><path d="M79.564 322.047l9.268-24.763-9.268-24.762 9.268-24.763-9.268-24.763 9.268-24.762-9.268-24.763 9.268-24.762-9.268-24.763 9.268-24.774-9.268-24.762 9.268-24.763-9.268-24.774L88.871 0l.458.21-9.227 24.663 9.267 24.774-9.267 24.763 9.267 24.762-9.267 24.774 9.267 24.763-9.267 24.762 9.267 24.763-9.267 24.762 9.267 24.763-9.267 24.763 9.267 24.762-9.267 24.763 9.267 24.762-9.307 24.874-.458-.211 9.228-24.663-9.268-24.762z" fill="#287E74" fill-opacity=".36"/><path d="M88.404 322.047l9.267-24.763-9.267-24.762 9.267-24.763-9.267-24.763 9.267-24.762-9.267-24.763 9.267-24.762-9.267-24.763 9.267-24.774-9.267-24.762 9.267-24.763-9.267-24.774L97.711 0l.458.21-9.227 24.663 9.267 24.774-9.267 24.763 9.267 24.762-9.267 24.774 9.267 24.763-9.267 24.762 9.267 24.763-9.267 24.762 9.267 24.763-9.267 24.763 9.267 24.762-9.267 24.763 9.267 24.762-9.307 24.874-.458-.211 9.227-24.663-9.267-24.762z" fill="#287E74" fill-opacity=".36"/><path d="M97.242 322.047l9.267-24.763-9.267-24.762 9.267-24.763-9.267-24.763 9.267-24.762-9.267-24.763 9.267-24.762-9.267-24.763 9.267-24.774-9.267-24.762 9.267-24.763-9.267-24.774L106.549 0l.468.21-9.238 24.663 9.278 24.774-9.278 24.763 9.278 24.762-9.278 24.774 9.278 24.763-9.278 24.762 9.278 24.763-9.278 24.762 9.278 24.763-9.278 24.763 9.278 24.762-9.278 24.763 9.278 24.762-9.318 24.874-.458-.211 9.228-24.663-9.267-24.762z" fill="#287E74" fill-opacity=".36"/><path d="M106.082 322.047l9.267-24.762-9.267-24.763 9.267-24.763-9.267-24.762 9.267-24.763-9.267-24.763 9.267-24.762-9.267-24.763 9.267-24.773-9.267-24.763 9.267-24.763-9.267-24.773L115.389 0l.468.21-9.238 24.664 9.277 24.773-9.277 24.763 9.277 24.763-9.277 24.773 9.277 24.763-9.277 24.762 9.277 24.763-9.277 24.763 9.277 24.762-9.277 24.763 9.277 24.763-9.277 24.762 9.277 24.763-9.317 24.873-.458-.21 9.228-24.663-9.267-24.763z" fill="#287E74" fill-opacity=".36"/><path d="M114.921 74.41l9.278-24.763-9.278-24.774L124.239 0l.457.21-9.237 24.663 9.277 24.774-9.277 24.763 9.277 24.762-9.277 24.774 9.277 24.763-9.277 24.762 9.277 24.763-9.277 24.762 9.277 24.763-9.277 24.763 9.277 24.762-9.277 24.763 9.277 24.762-9.317 24.874-.458-.211 9.238-24.663-9.278-24.762 9.278-24.763-9.278-24.762 9.278-24.763-9.278-24.763 9.278-24.762-9.278-24.763 9.278-24.762-9.278-24.763 9.278-24.774-9.278-24.762z" fill="#287E74" fill-opacity=".36"/><path d="M123.761 322.047l9.278-24.762-9.278-24.763 9.278-24.763-9.278-24.762 9.278-24.763-9.278-24.763 9.278-24.762-9.278-24.763 9.278-24.773-9.278-24.763 9.278-24.763-9.278-24.773L133.078 0l.458.21-9.227 24.664 9.267 24.773-9.267 24.763 9.267 24.763-9.267 24.773 9.267 24.763-9.267 24.762 9.267 24.763-9.267 24.763 9.267 24.762-9.267 24.763 9.267 24.763-9.267 24.762 9.267 24.763-9.307 24.873-.468-.21 9.238-24.663-9.278-24.763z" fill="#287E74" fill-opacity=".36"/><path d="M132.601 322.047l9.277-24.763-9.277-24.762 9.277-24.763-9.277-24.763 9.277-24.762-9.277-24.763 9.277-24.762-9.277-24.763 9.277-24.774-9.277-24.762 9.278-24.763-9.278-24.774L141.918 0l.458.21-9.227 24.663 9.267 24.774-9.267 24.763 9.267 24.762-9.267 24.774 9.267 24.763-9.267 24.762 9.267 24.763-9.267 24.762 9.267 24.763-9.267 24.763 9.267 24.762-9.267 24.763 9.267 24.762-9.307 24.874-.468-.211 9.237-24.663-9.277-24.762z" fill="#287E74" fill-opacity=".36"/><path d="M141.449 322.047l9.267-24.763-9.267-24.762 9.267-24.763-9.267-24.763 9.267-24.762-9.267-24.763 9.267-24.762-9.267-24.763 9.267-24.774-9.267-24.762 9.267-24.763-9.267-24.774L150.756 0l.458.21-9.228 24.663 9.268 24.774-9.268 24.763 9.268 24.762-9.268 24.774 9.268 24.763-9.268 24.762 9.268 24.763-9.268 24.762 9.268 24.763-9.268 24.763 9.268 24.762-9.268 24.763 9.268 24.762-9.307 24.874-.458-.211 9.227-24.663-9.267-24.762z" fill="#287E74" fill-opacity=".36"/><path d="M150.289 322.047l9.267-24.763-9.267-24.762 9.267-24.763-9.267-24.763 9.267-24.762-9.267-24.763 9.267-24.762-9.267-24.763 9.267-24.774-9.267-24.762 9.267-24.763-9.267-24.774L159.596 0l.458.21-9.228 24.663 9.268 24.774-9.268 24.763 9.268 24.762-9.268 24.774 9.268 24.763-9.268 24.762 9.268 24.763-9.268 24.762 9.268 24.763-9.268 24.763 9.268 24.762-9.268 24.763 9.268 24.762-9.308 24.874-.457-.211 9.227-24.663-9.267-24.762z" fill="#287E74" fill-opacity=".36"/><path d="M159.129 322.047l9.267-24.763-9.267-24.762 9.267-24.763-9.267-24.763 9.267-24.762-9.267-24.763 9.267-24.762-9.267-24.763 9.267-24.774-9.267-24.762 9.267-24.763-9.267-24.774L168.436 0l.458.21-9.228 24.663 9.268 24.774-9.268 24.763 9.268 24.762-9.268 24.774 9.268 24.763-9.268 24.762 9.268 24.763-9.268 24.762 9.268 24.763-9.268 24.763 9.268 24.762-9.268 24.763 9.268 24.762-9.308 24.874-.458-.211 9.228-24.663-9.267-24.762z" fill="#287E74" fill-opacity=".36"/><path d="M167.968 322.047l9.268-24.763-9.268-24.762 9.268-24.763-9.268-24.763 9.268-24.762-9.268-24.763 9.268-24.762-9.268-24.763 9.268-24.774-9.268-24.762 9.268-24.763-9.268-24.774L177.276 0l.467.21-9.237 24.663 9.277 24.774-9.277 24.763 9.277 24.762-9.277 24.774 9.277 24.763-9.277 24.762 9.277 24.763-9.277 24.762 9.277 24.763-9.277 24.763 9.277 24.762-9.277 24.763 9.277 24.762-9.317 24.874-.458-.211 9.228-24.663-9.268-24.762z" fill="#287E74" fill-opacity=".36"/><path d="M176.808 322.047l9.268-24.763-9.268-24.762 9.268-24.763-9.268-24.763 9.268-24.762-9.268-24.763 9.268-24.762-9.268-24.763 9.268-24.774-9.268-24.762 9.268-24.763-9.268-24.774L186.115 0l.468.21-9.237 24.663 9.277 24.774-9.277 24.763 9.277 24.762-9.277 24.774 9.277 24.763-9.277 24.762 9.277 24.763-9.277 24.762 9.277 24.763-9.277 24.763 9.277 24.762-9.277 24.763 9.277 24.762-9.317 24.874-.458-.211 9.228-24.663-9.268-24.762z" fill="#287E74" fill-opacity=".36"/><path d="M185.646 322.047l9.277-24.762-9.277-24.763 9.277-24.763-9.277-24.762 9.277-24.763-9.277-24.763 9.277-24.762-9.277-24.763 9.277-24.773-9.277-24.763 9.277-24.763-9.277-24.773L194.963 0l.458.21-9.237 24.664 9.277 24.773-9.277 24.763 9.277 24.763-9.277 24.773 9.277 24.763-9.277 24.762 9.277 24.763-9.277 24.763 9.277 24.762-9.277 24.763 9.277 24.763-9.277 24.762 9.277 24.763-9.317 24.873-.458-.21 9.237-24.663-9.277-24.763z" fill="#287E74" fill-opacity=".36"/><path d="M194.486 322.047l9.277-24.763-9.277-24.762 9.277-24.763-9.277-24.763 9.277-24.762-9.277-24.763 9.277-24.762-9.277-24.763 9.277-24.774-9.277-24.762 9.277-24.763-9.277-24.774L203.803 0l.458.21-9.228 24.663 9.268 24.774-9.268 24.763 9.268 24.762-9.268 24.774 9.268 24.763-9.268 24.762 9.268 24.763-9.268 24.762 9.268 24.763-9.268 24.763 9.268 24.762-9.268 24.763 9.268 24.762-9.308 24.874-.467-.211 9.237-24.663-9.277-24.762z" fill="#287E74" fill-opacity=".36"/><path d="M203.336 322.047l9.267-24.763-9.267-24.762 9.267-24.763-9.267-24.763 9.267-24.762-9.267-24.763 9.267-24.762-9.267-24.763 9.267-24.774-9.267-24.762 9.267-24.763-9.267-24.774L212.643 0l.458.21-9.228 24.663 9.268 24.774-9.268 24.763 9.268 24.762-9.268 24.774 9.268 24.763-9.268 24.762 9.268 24.763-9.268 24.762 9.268 24.763-9.268 24.763 9.268 24.762-9.268 24.763 9.268 24.762-9.308 24.874-.467-.211 9.237-24.663-9.267-24.762z" fill="#287E74" fill-opacity=".36"/><path d="M212.175 322.047l9.268-24.762-9.268-24.763 9.268-24.763-9.268-24.762 9.268-24.763-9.268-24.763 9.268-24.762-9.268-24.763 9.268-24.773-9.268-24.763 9.268-24.763-9.268-24.773L221.483 0l.458.21-9.228 24.664 9.267 24.773-9.267 24.763 9.267 24.763-9.267 24.773 9.267 24.763-9.267 24.762 9.267 24.763-9.267 24.763 9.267 24.762-9.267 24.763 9.267 24.763-9.267 24.762 9.267 24.763-9.307 24.873-.458-.21 9.228-24.663-9.268-24.763z" fill="#287E74" fill-opacity=".36"/><path d="M221.013 322.047l9.268-24.763-9.268-24.762 9.268-24.763-9.268-24.763 9.268-24.762-9.268-24.763 9.268-24.762-9.268-24.763 9.268-24.774-9.268-24.762 9.268-24.763-9.268-24.774L230.321 0l.458.21-9.228 24.663 9.267 24.774-9.267 24.763 9.267 24.762-9.267 24.774 9.267 24.763-9.267 24.762 9.267 24.763-9.267 24.762 9.267 24.763-9.267 24.763 9.267 24.762-9.267 24.763 9.267 24.762-9.307 24.874-.458-.211 9.228-24.663-9.268-24.762z" fill="#287E74" fill-opacity=".36"/><path d="M229.853 322.047l9.268-24.762-9.268-24.763 9.268-24.763-9.268-24.762 9.268-24.763-9.268-24.763 9.268-24.762-9.268-24.763 9.268-24.773-9.268-24.763 9.268-24.763-9.268-24.773L239.16 0l.458.21-9.227 24.664 9.267 24.773-9.267 24.763 9.267 24.763-9.267 24.773 9.267 24.763-9.267 24.762 9.267 24.763-9.267 24.763 9.267 24.762-9.267 24.763 9.267 24.763-9.267 24.762 9.267 24.763-9.307 24.873-.458-.21 9.228-24.663-9.268-24.763z" fill="#287E74" fill-opacity=".36"/><path d="M238.693 322.047l9.267-24.763-9.267-24.762 9.267-24.763-9.267-24.763 9.267-24.762-9.267-24.763 9.267-24.762-9.267-24.763 9.267-24.774-9.267-24.762 9.267-24.763-9.267-24.774L248 0l.468.21-9.238 24.663 9.278 24.774-9.278 24.763 9.278 24.762-9.278 24.774 9.278 24.763-9.278 24.762 9.278 24.763-9.278 24.762 9.278 24.763-9.278 24.763 9.278 24.762-9.278 24.763 9.278 24.762-9.317 24.874-.458-.211 9.227-24.663-9.267-24.762z" fill="#287E74" fill-opacity=".36"/><path d="M247.533 322.047l9.267-24.763-9.267-24.762 9.267-24.763-9.267-24.763 9.267-24.762-9.267-24.763 9.267-24.762-9.267-24.763 9.267-24.774-9.267-24.762 9.267-24.763-9.267-24.774L256.84 0l.468.21-9.238 24.663 9.278 24.774-9.278 24.763 9.278 24.762-9.278 24.774 9.278 24.763-9.278 24.762 9.278 24.763-9.278 24.762 9.278 24.763-9.278 24.763 9.278 24.762-9.278 24.763 9.278 24.762-9.318 24.874-.457-.211 9.227-24.663-9.267-24.762z" fill="#287E74" fill-opacity=".36"/><path d="M256.373 322.047l9.277-24.763-9.277-24.762 9.277-24.763-9.277-24.763 9.277-24.762-9.277-24.763 9.277-24.762-9.277-24.763 9.277-24.774-9.277-24.762 9.277-24.763-9.277-24.774L265.69 0l.458.21-9.238 24.663 9.277 24.774-9.277 24.763 9.277 24.762-9.277 24.774 9.277 24.763-9.277 24.762 9.277 24.763-9.277 24.762 9.277 24.763-9.277 24.763 9.277 24.762-9.277 24.763 9.277 24.762-9.317 24.874-.458-.211 9.238-24.663-9.277-24.762z" fill="#287E74" fill-opacity=".36"/><path d="M265.21 322.047l9.278-24.763-9.278-24.762 9.278-24.763-9.278-24.763 9.278-24.762-9.278-24.763 9.278-24.762-9.278-24.763 9.278-24.774-9.278-24.762 9.278-24.763-9.278-24.774L274.528 0l.458.21-9.228 24.663 9.267 24.774-9.267 24.763 9.267 24.762-9.267 24.774 9.267 24.763-9.267 24.762 9.267 24.763-9.267 24.762 9.267 24.763-9.267 24.763 9.267 24.762-9.267 24.763 9.267 24.762-9.307 24.874-.468-.211 9.238-24.663-9.278-24.762z" fill="#287E74" fill-opacity=".36"/><path d="M274.06 322.047l9.268-24.763-9.268-24.762 9.268-24.763-9.268-24.763 9.268-24.762-9.268-24.763 9.268-24.762-9.268-24.763 9.268-24.774-9.268-24.762 9.268-24.763-9.268-24.774L283.368 0l.457.21-9.227 24.663 9.267 24.774-9.267 24.763 9.267 24.762-9.267 24.774 9.267 24.763-9.267 24.762 9.267 24.763-9.267 24.762 9.267 24.763-9.267 24.763 9.267 24.762-9.267 24.763 9.267 24.762-9.307 24.874-.458-.211 9.228-24.663-9.268-24.762z" fill="#287E74" fill-opacity=".36"/><path d="M282.9 322.047l9.268-24.763-9.268-24.762 9.268-24.763-9.268-24.763 9.268-24.762-9.268-24.763 9.268-24.762-9.268-24.763 9.268-24.774L282.9 74.41l9.268-24.763-9.268-24.774L292.207 0l.458.21-9.227 24.663 9.267 24.774-9.267 24.763 9.267 24.762-9.267 24.774 9.267 24.763-9.267 24.762 9.267 24.763-9.267 24.762 9.267 24.763-9.267 24.763 9.267 24.762-9.267 24.763 9.267 24.762-9.307 24.874-.458-.211 9.228-24.663-9.268-24.762z" fill="#287E74" fill-opacity=".36"/><path d="M291.74 322.047l9.267-24.763-9.267-24.762 9.267-24.763-9.267-24.763 9.267-24.762-9.267-24.763 9.267-24.762-9.267-24.763 9.267-24.774-9.267-24.762 9.267-24.763-9.267-24.774L301.047 0l.458.21-9.228 24.663 9.268 24.774-9.268 24.763 9.268 24.762-9.268 24.774 9.268 24.763-9.268 24.762 9.268 24.763-9.268 24.762 9.268 24.763-9.268 24.763 9.268 24.762-9.268 24.763 9.268 24.762-9.307 24.874-.458-.211 9.227-24.663-9.267-24.762z" fill="#287E74" fill-opacity=".36"/><path d="M300.58 322.047l9.267-24.763-9.267-24.762 9.267-24.763-9.267-24.763 9.267-24.762-9.267-24.763 9.267-24.762-9.267-24.763 9.267-24.774-9.267-24.762 9.267-24.763-9.267-24.774L309.887 0l.458.21-9.228 24.663 9.268 24.774-9.268 24.763 9.268 24.762-9.268 24.774 9.268 24.763-9.268 24.762 9.268 24.763-9.268 24.762 9.268 24.763-9.268 24.763 9.268 24.762-9.268 24.763 9.268 24.762-9.308 24.874-.457-.211 9.227-24.663-9.267-24.762z" fill="#287E74" fill-opacity=".36"/><path d="M309.417 322.047l9.268-24.763-9.268-24.762 9.268-24.763-9.268-24.763 9.268-24.762-9.268-24.763 9.268-24.762-9.268-24.763 9.268-24.774-9.268-24.762 9.268-24.763-9.268-24.774L318.725 0l.468.21-9.238 24.663 9.277 24.774-9.277 24.763 9.277 24.762-9.277 24.774 9.277 24.763-9.277 24.762 9.277 24.763-9.277 24.762 9.277 24.763-9.277 24.763 9.277 24.762-9.277 24.763 9.277 24.762-9.317 24.874-.458-.211 9.228-24.663-9.268-24.762z" fill="#287E74" fill-opacity=".36"/><path d="M318.257 322.047l9.268-24.763-9.268-24.762 9.268-24.763-9.268-24.763 9.268-24.762-9.268-24.763 9.268-24.762-9.268-24.763 9.268-24.774-9.268-24.762 9.268-24.763-9.268-24.774L327.565 0l.467.21-9.237 24.663 9.277 24.774-9.277 24.763 9.277 24.762-9.277 24.774 9.277 24.763-9.277 24.762 9.277 24.763-9.277 24.762 9.277 24.763-9.277 24.763 9.277 24.762-9.277 24.763 9.277 24.762-9.317 24.874-.458-.211 9.228-24.663-9.268-24.762z" fill="#287E74" fill-opacity=".36"/><path d="M327.097 322.047l9.278-24.763-9.278-24.762 9.278-24.763-9.278-24.763 9.278-24.762-9.278-24.763 9.278-24.762-9.278-24.763 9.278-24.774-9.278-24.762 9.278-24.763-9.278-24.774L336.414 0l.458.21-9.237 24.663 9.277 24.774-9.277 24.763 9.277 24.762-9.277 24.774 9.277 24.763-9.277 24.762 9.277 24.763-9.277 24.762 9.277 24.763-9.277 24.763 9.277 24.762-9.277 24.763 9.277 24.762-9.317 24.874-.458-.211 9.238-24.663-9.278-24.762z" fill="#287E74" fill-opacity=".36"/><path d="M335.937 322.047l9.277-24.763-9.277-24.762 9.277-24.763-9.277-24.763 9.277-24.762-9.277-24.763 9.277-24.762-9.277-24.763 9.277-24.774-9.277-24.762 9.277-24.763-9.277-24.774L345.254 0l.458.21-9.227 24.663 9.267 24.774-9.267 24.763 9.267 24.762-9.267 24.774 9.267 24.763-9.267 24.762 9.267 24.763-9.267 24.762 9.267 24.763-9.267 24.763 9.267 24.762-9.267 24.763 9.267 24.762-9.307 24.874-.468-.211 9.237-24.663-9.277-24.762z" fill="#287E74" fill-opacity=".36"/><path d="M344.785 322.047l9.267-24.762-9.267-24.763 9.267-24.763-9.267-24.762 9.267-24.763-9.267-24.763 9.267-24.762-9.267-24.763 9.267-24.773-9.267-24.763 9.267-24.763-9.267-24.773L354.092 0l.458.21-9.228 24.664 9.268 24.773-9.268 24.763 9.268 24.763-9.268 24.773 9.268 24.763-9.268 24.762 9.268 24.763-9.268 24.763 9.268 24.762-9.268 24.763 9.268 24.763-9.268 24.762 9.268 24.763-9.307 24.873-.458-.21 9.227-24.663-9.267-24.763z" fill="#287E74" fill-opacity=".36"/><path d="M353.625 322.047l9.267-24.763-9.267-24.762 9.267-24.763-9.267-24.763 9.267-24.762-9.267-24.763 9.267-24.762-9.267-24.763 9.267-24.774-9.267-24.762 9.267-24.763-9.267-24.774L362.932 0l.458.21-9.228 24.663 9.268 24.774-9.268 24.763 9.268 24.762-9.268 24.774 9.268 24.763-9.268 24.762 9.268 24.763-9.268 24.762 9.268 24.763-9.268 24.763 9.268 24.762-9.268 24.763 9.268 24.762-9.308 24.874-.457-.211 9.227-24.663-9.267-24.762z" fill="#287E74" fill-opacity=".36"/><path d="M362.465 322.047l9.267-24.763-9.267-24.762 9.267-24.763-9.267-24.763 9.267-24.762-9.267-24.763 9.267-24.762-9.267-24.763 9.267-24.774-9.267-24.762 9.267-24.763-9.267-24.774L371.772 0l.458.21-9.228 24.663 9.268 24.774-9.268 24.763 9.268 24.762-9.268 24.774 9.268 24.763-9.268 24.762 9.268 24.763-9.268 24.762 9.268 24.763-9.268 24.763 9.268 24.762-9.268 24.763 9.268 24.762-9.308 24.874-.458-.211 9.228-24.663-9.267-24.762z" fill="#287E74" fill-opacity=".36"/><path d="M371.304 322.047l9.268-24.763-9.268-24.762 9.268-24.763-9.268-24.763 9.268-24.762-9.268-24.763 9.268-24.762-9.268-24.763 9.268-24.774-9.268-24.762 9.268-24.763-9.268-24.774L380.611 0l.468.21-9.237 24.663 9.277 24.774-9.277 24.763 9.277 24.762-9.277 24.774 9.277 24.763-9.277 24.762 9.277 24.763-9.277 24.762 9.277 24.763-9.277 24.763 9.277 24.762-9.277 24.763 9.277 24.762-9.317 24.874-.458-.211 9.228-24.663-9.268-24.762z" fill="#287E74" fill-opacity=".36"/><path d="M380.144 322.047l9.267-24.763-9.267-24.762 9.267-24.763-9.267-24.763 9.267-24.762-9.267-24.763 9.267-24.762-9.267-24.763 9.267-24.774-9.267-24.762 9.267-24.763-9.267-24.774L389.451 0l.468.21-9.237 24.663 9.277 24.774-9.277 24.763 9.277 24.762-9.277 24.774 9.277 24.763-9.277 24.762 9.277 24.763-9.277 24.762 9.277 24.763-9.277 24.763 9.277 24.762-9.277 24.763 9.277 24.762-9.317 24.874-.458-.211 9.227-24.663-9.267-24.762z" fill="#287E74" fill-opacity=".36"/><path d="M388.982 322.047l9.277-24.763-9.277-24.762 9.277-24.763-9.277-24.763 9.277-24.762-9.277-24.763 9.277-24.762-9.277-24.763 9.277-24.774-9.277-24.762 9.277-24.763-9.277-24.774L398.299 0l.458.21-9.238 24.663 9.278 24.774-9.278 24.763 9.278 24.762-9.278 24.774 9.278 24.763-9.278 24.762 9.278 24.763-9.278 24.762 9.278 24.763-9.278 24.763 9.278 24.762-9.278 24.763 9.278 24.762-9.317 24.874-.458-.211 9.237-24.663-9.277-24.762z" fill="#287E74" fill-opacity=".36"/><path d="M397.822 322.047l9.277-24.763-9.277-24.762 9.277-24.763-9.277-24.763 9.277-24.762-9.277-24.763 9.277-24.762-9.277-24.763 9.277-24.774-9.277-24.762 9.277-24.763-9.277-24.774L407.139 0l.458.21-9.228 24.663 9.268 24.774-9.268 24.763 9.268 24.762-9.268 24.774 9.268 24.763-9.268 24.762 9.268 24.763-9.268 24.762 9.268 24.763-9.268 24.763 9.268 24.762-9.268 24.763 9.268 24.762-9.308 24.874-.467-.211 9.237-24.663-9.277-24.762z" fill="#287E74" fill-opacity=".36"/><path d="M406.662 322.047l9.277-24.763-9.277-24.762 9.277-24.763-9.277-24.763 9.277-24.762-9.277-24.763 9.277-24.762-9.277-24.763 9.277-24.774-9.277-24.762 9.277-24.763-9.277-24.774L415.979 0l.458.21-9.228 24.663 9.268 24.774-9.268 24.763 9.268 24.762-9.268 24.774 9.268 24.763-9.268 24.762 9.268 24.763-9.268 24.762 9.268 24.763-9.268 24.763 9.268 24.762-9.268 24.763 9.268 24.762-9.308 24.874-.468-.211 9.238-24.663-9.277-24.762z" fill="#287E74" fill-opacity=".36"/></svg>