<svg width="46" height="46" fill="none" xmlns="http://www.w3.org/2000/svg"><path d="M33.339 22.621l11.544-11.557a1.326 1.326 0 00-.003-1.878L36.037.387a1.326 1.326 0 00-1.873.003L22.635 11.918l-9.654-9.654a1.325 1.325 0 00-.709-.369L1.555.02A1.327 1.327 0 00.02 1.555l1.877 10.716c.047.269.176.517.369.71l9.66 9.647L.388 34.165a1.326 1.326 0 000 1.875l8.84 8.84a1.326 1.326 0 001.876 0L22.64 33.331l11.566 11.551c.248.249.586.388.937.388h.002c.352 0 .69-.14.938-.39l8.799-8.844a1.326 1.326 0 00-.002-1.873L33.339 22.621zM27.23 11.074l2.813 2.814c.26.259.598.388.938.388a1.326 1.326 0 00.938-2.264l-2.814-2.813 2.546-2.546 2.813 2.814a1.322 1.322 0 001.876 0 1.326 1.326 0 000-1.876l-2.814-2.813L35.104 3.2l6.963 6.928-10.604 10.617-6.952-6.952 2.72-2.72zM9.3 4.068L4.07 9.301 2.96 2.958l6.34 1.11zm.866 37.999l-6.965-6.965 1.575-1.575 2.814 2.814a1.322 1.322 0 001.875 0 1.326 1.326 0 000-1.876l-2.813-2.813 2.545-2.546 2.814 2.814a1.322 1.322 0 001.875 0 1.326 1.326 0 000-1.876l-2.813-2.813 2.728-2.728 6.962 6.954-10.597 10.61zm24.974 0L5.079 12.042l2.544-2.544L37.66 39.535l-2.519 2.532zm4.39-4.412L9.498 7.623l2.546-2.546L42.07 35.103l-2.54 2.552z" fill="#263959"/></svg>