<svg width="243" height="85" viewBox="0 0 243 85" fill="none" xmlns="http://www.w3.org/2000/svg">
<path d="M2.05533 4.11065C3.19045 4.11065 4.11065 3.19045 4.11065 2.05533C4.11065 0.920201 3.19045 0 2.05533 0C0.920201 0 0 0.920201 0 2.05533C0 3.19045 0.920201 4.11065 2.05533 4.11065Z" fill="black" fill-opacity="0.21"/>
<path d="M31.8073 4.11065C32.9424 4.11065 33.8626 3.19045 33.8626 2.05533C33.8626 0.920201 32.9424 0 31.8073 0C30.6722 0 29.752 0.920201 29.752 2.05533C29.752 3.19045 30.6722 4.11065 31.8073 4.11065Z" fill="black" fill-opacity="0.21"/>
<path d="M61.5592 4.11065C62.6944 4.11065 63.6146 3.19045 63.6146 2.05533C63.6146 0.920201 62.6944 0 61.5592 0C60.4241 0 59.5039 0.920201 59.5039 2.05533C59.5039 3.19045 60.4241 4.11065 61.5592 4.11065Z" fill="black" fill-opacity="0.21"/>
<path d="M91.3112 4.11065C92.4463 4.11065 93.3665 3.19045 93.3665 2.05533C93.3665 0.920201 92.4463 0 91.3112 0C90.1761 0 89.2559 0.920201 89.2559 2.05533C89.2559 3.19045 90.1761 4.11065 91.3112 4.11065Z" fill="black" fill-opacity="0.21"/>
<path d="M121.063 4.11065C122.198 4.11065 123.118 3.19045 123.118 2.05533C123.118 0.920201 122.198 0 121.063 0C119.928 0 119.008 0.920201 119.008 2.05533C119.008 3.19045 119.928 4.11065 121.063 4.11065Z" fill="black" fill-opacity="0.21"/>
<path d="M150.813 4.11065C151.948 4.11065 152.868 3.19045 152.868 2.05533C152.868 0.920201 151.948 0 150.813 0C149.678 0 148.758 0.920201 148.758 2.05533C148.758 3.19045 149.678 4.11065 150.813 4.11065Z" fill="black" fill-opacity="0.21"/>
<path d="M182.62 2.05533C182.62 3.18407 181.694 4.11065 180.565 4.11065C179.436 4.11065 178.51 3.18407 178.51 2.05533C178.51 0.926582 179.436 0 180.565 0C181.711 0 182.62 0.926582 182.62 2.05533Z" fill="black" fill-opacity="0.21"/>
<path d="M210.317 4.11065C211.452 4.11065 212.372 3.19045 212.372 2.05533C212.372 0.920201 211.452 0 210.317 0C209.182 0 208.262 0.920201 208.262 2.05533C208.262 3.19045 209.182 4.11065 210.317 4.11065Z" fill="black" fill-opacity="0.21"/>
<path d="M240.069 4.11065C241.204 4.11065 242.124 3.19045 242.124 2.05533C242.124 0.920201 241.204 0 240.069 0C238.934 0 238.014 0.920201 238.014 2.05533C238.014 3.19045 238.934 4.11065 240.069 4.11065Z" fill="black" fill-opacity="0.21"/>
<path d="M2.05533 24.1077C3.19045 24.1077 4.11065 23.1875 4.11065 22.0524C4.11065 20.9173 3.19045 19.9971 2.05533 19.9971C0.920201 19.9971 0 20.9173 0 22.0524C0 23.1875 0.920201 24.1077 2.05533 24.1077Z" fill="black" fill-opacity="0.21"/>
<path d="M31.8073 24.1077C32.9424 24.1077 33.8626 23.1875 33.8626 22.0524C33.8626 20.9173 32.9424 19.9971 31.8073 19.9971C30.6722 19.9971 29.752 20.9173 29.752 22.0524C29.752 23.1875 30.6722 24.1077 31.8073 24.1077Z" fill="black" fill-opacity="0.21"/>
<path d="M61.5592 24.1077C62.6944 24.1077 63.6146 23.1875 63.6146 22.0524C63.6146 20.9173 62.6944 19.9971 61.5592 19.9971C60.4241 19.9971 59.5039 20.9173 59.5039 22.0524C59.5039 23.1875 60.4241 24.1077 61.5592 24.1077Z" fill="black" fill-opacity="0.21"/>
<path d="M91.3112 24.1077C92.4463 24.1077 93.3665 23.1875 93.3665 22.0524C93.3665 20.9173 92.4463 19.9971 91.3112 19.9971C90.1761 19.9971 89.2559 20.9173 89.2559 22.0524C89.2559 23.1875 90.1761 24.1077 91.3112 24.1077Z" fill="black" fill-opacity="0.21"/>
<path d="M121.063 24.1077C122.198 24.1077 123.118 23.1875 123.118 22.0524C123.118 20.9173 122.198 19.9971 121.063 19.9971C119.928 19.9971 119.008 20.9173 119.008 22.0524C119.008 23.1875 119.928 24.1077 121.063 24.1077Z" fill="black" fill-opacity="0.21"/>
<path d="M150.813 24.1077C151.948 24.1077 152.868 23.1875 152.868 22.0524C152.868 20.9173 151.948 19.9971 150.813 19.9971C149.678 19.9971 148.758 20.9173 148.758 22.0524C148.758 23.1875 149.678 24.1077 150.813 24.1077Z" fill="black" fill-opacity="0.21"/>
<path d="M182.62 22.0524C182.62 23.1811 181.694 24.1077 180.565 24.1077C179.436 24.1077 178.51 23.1811 178.51 22.0524C178.51 20.9237 179.436 19.9971 180.565 19.9971C181.711 19.9971 182.62 20.9237 182.62 22.0524Z" fill="black" fill-opacity="0.21"/>
<path d="M210.317 24.1077C211.452 24.1077 212.372 23.1875 212.372 22.0524C212.372 20.9173 211.452 19.9971 210.317 19.9971C209.182 19.9971 208.262 20.9173 208.262 22.0524C208.262 23.1875 209.182 24.1077 210.317 24.1077Z" fill="black" fill-opacity="0.21"/>
<path d="M240.069 24.1077C241.204 24.1077 242.124 23.1875 242.124 22.0524C242.124 20.9173 241.204 19.9971 240.069 19.9971C238.934 19.9971 238.014 20.9173 238.014 22.0524C238.014 23.1875 238.934 24.1077 240.069 24.1077Z" fill="black" fill-opacity="0.21"/>
<path d="M2.05533 44.1053C3.19045 44.1053 4.11065 43.1851 4.11065 42.05C4.11065 40.9148 3.19045 39.9946 2.05533 39.9946C0.920201 39.9946 0 40.9148 0 42.05C0 43.1851 0.920201 44.1053 2.05533 44.1053Z" fill="black" fill-opacity="0.21"/>
<path d="M31.8073 44.1053C32.9424 44.1053 33.8626 43.1851 33.8626 42.05C33.8626 40.9148 32.9424 39.9946 31.8073 39.9946C30.6722 39.9946 29.752 40.9148 29.752 42.05C29.752 43.1851 30.6722 44.1053 31.8073 44.1053Z" fill="black" fill-opacity="0.21"/>
<path d="M61.5592 44.1053C62.6944 44.1053 63.6146 43.1851 63.6146 42.05C63.6146 40.9148 62.6944 39.9946 61.5592 39.9946C60.4241 39.9946 59.5039 40.9148 59.5039 42.05C59.5039 43.1851 60.4241 44.1053 61.5592 44.1053Z" fill="black" fill-opacity="0.21"/>
<path d="M91.3112 44.1053C92.4463 44.1053 93.3665 43.1851 93.3665 42.05C93.3665 40.9148 92.4463 39.9946 91.3112 39.9946C90.1761 39.9946 89.2559 40.9148 89.2559 42.05C89.2559 43.1851 90.1761 44.1053 91.3112 44.1053Z" fill="black" fill-opacity="0.21"/>
<path d="M121.063 44.1053C122.198 44.1053 123.118 43.1851 123.118 42.05C123.118 40.9148 122.198 39.9946 121.063 39.9946C119.928 39.9946 119.008 40.9148 119.008 42.05C119.008 43.1851 119.928 44.1053 121.063 44.1053Z" fill="black" fill-opacity="0.21"/>
<path d="M150.813 44.1053C151.948 44.1053 152.868 43.1851 152.868 42.05C152.868 40.9148 151.948 39.9946 150.813 39.9946C149.678 39.9946 148.758 40.9148 148.758 42.05C148.758 43.1851 149.678 44.1053 150.813 44.1053Z" fill="black" fill-opacity="0.21"/>
<path d="M182.62 42.05C182.62 43.1787 181.694 44.1053 180.565 44.1053C179.436 44.1053 178.51 43.1787 178.51 42.05C178.51 40.9212 179.436 39.9946 180.565 39.9946C181.711 39.9946 182.62 40.9212 182.62 42.05Z" fill="black" fill-opacity="0.21"/>
<path d="M210.317 44.1053C211.452 44.1053 212.372 43.1851 212.372 42.05C212.372 40.9148 211.452 39.9946 210.317 39.9946C209.182 39.9946 208.262 40.9148 208.262 42.05C208.262 43.1851 209.182 44.1053 210.317 44.1053Z" fill="black" fill-opacity="0.21"/>
<path d="M240.069 44.1053C241.204 44.1053 242.124 43.1851 242.124 42.05C242.124 40.9148 241.204 39.9946 240.069 39.9946C238.934 39.9946 238.014 40.9148 238.014 42.05C238.014 43.1851 238.934 44.1053 240.069 44.1053Z" fill="black" fill-opacity="0.21"/>
<path d="M2.05533 64.1024C3.19045 64.1024 4.11065 63.1822 4.11065 62.047C4.11065 60.9119 3.19045 59.9917 2.05533 59.9917C0.920201 59.9917 0 60.9119 0 62.047C0 63.1822 0.920201 64.1024 2.05533 64.1024Z" fill="black" fill-opacity="0.21"/>
<path d="M31.8073 64.1024C32.9424 64.1024 33.8626 63.1822 33.8626 62.047C33.8626 60.9119 32.9424 59.9917 31.8073 59.9917C30.6722 59.9917 29.752 60.9119 29.752 62.047C29.752 63.1822 30.6722 64.1024 31.8073 64.1024Z" fill="black" fill-opacity="0.21"/>
<path d="M61.5592 64.1024C62.6944 64.1024 63.6146 63.1822 63.6146 62.047C63.6146 60.9119 62.6944 59.9917 61.5592 59.9917C60.4241 59.9917 59.5039 60.9119 59.5039 62.047C59.5039 63.1822 60.4241 64.1024 61.5592 64.1024Z" fill="black" fill-opacity="0.21"/>
<path d="M91.3112 64.1024C92.4463 64.1024 93.3665 63.1822 93.3665 62.047C93.3665 60.9119 92.4463 59.9917 91.3112 59.9917C90.1761 59.9917 89.2559 60.9119 89.2559 62.047C89.2559 63.1822 90.1761 64.1024 91.3112 64.1024Z" fill="black" fill-opacity="0.21"/>
<path d="M121.063 64.1024C122.198 64.1024 123.118 63.1822 123.118 62.047C123.118 60.9119 122.198 59.9917 121.063 59.9917C119.928 59.9917 119.008 60.9119 119.008 62.047C119.008 63.1822 119.928 64.1024 121.063 64.1024Z" fill="black" fill-opacity="0.21"/>
<path d="M150.813 64.1024C151.948 64.1024 152.868 63.1822 152.868 62.047C152.868 60.9119 151.948 59.9917 150.813 59.9917C149.678 59.9917 148.758 60.9119 148.758 62.047C148.758 63.1822 149.678 64.1024 150.813 64.1024Z" fill="black" fill-opacity="0.21"/>
<path d="M182.62 62.047C182.62 63.1758 181.694 64.1024 180.565 64.1024C179.436 64.1024 178.51 63.1758 178.51 62.047C178.51 60.9183 179.436 59.9917 180.565 59.9917C181.711 59.9917 182.62 60.9183 182.62 62.047Z" fill="black" fill-opacity="0.21"/>
<path d="M210.317 64.1024C211.452 64.1024 212.372 63.1822 212.372 62.047C212.372 60.9119 211.452 59.9917 210.317 59.9917C209.182 59.9917 208.262 60.9119 208.262 62.047C208.262 63.1822 209.182 64.1024 210.317 64.1024Z" fill="black" fill-opacity="0.21"/>
<path d="M240.069 64.1024C241.204 64.1024 242.124 63.1822 242.124 62.047C242.124 60.9119 241.204 59.9917 240.069 59.9917C238.934 59.9917 238.014 60.9119 238.014 62.047C238.014 63.1822 238.934 64.1024 240.069 64.1024Z" fill="black" fill-opacity="0.21"/>
<path d="M2.05533 84.0999C3.19045 84.0999 4.11065 83.1797 4.11065 82.0446C4.11065 80.9095 3.19045 79.9893 2.05533 79.9893C0.920201 79.9893 0 80.9095 0 82.0446C0 83.1797 0.920201 84.0999 2.05533 84.0999Z" fill="black" fill-opacity="0.21"/>
<path d="M31.8073 84.0999C32.9424 84.0999 33.8626 83.1797 33.8626 82.0446C33.8626 80.9095 32.9424 79.9893 31.8073 79.9893C30.6722 79.9893 29.752 80.9095 29.752 82.0446C29.752 83.1797 30.6722 84.0999 31.8073 84.0999Z" fill="black" fill-opacity="0.21"/>
<path d="M61.5592 84.0999C62.6944 84.0999 63.6146 83.1797 63.6146 82.0446C63.6146 80.9095 62.6944 79.9893 61.5592 79.9893C60.4241 79.9893 59.5039 80.9095 59.5039 82.0446C59.5039 83.1797 60.4241 84.0999 61.5592 84.0999Z" fill="black" fill-opacity="0.21"/>
<path d="M91.3112 84.0999C92.4463 84.0999 93.3665 83.1797 93.3665 82.0446C93.3665 80.9095 92.4463 79.9893 91.3112 79.9893C90.1761 79.9893 89.2559 80.9095 89.2559 82.0446C89.2559 83.1797 90.1761 84.0999 91.3112 84.0999Z" fill="black" fill-opacity="0.21"/>
<path d="M121.063 84.0999C122.198 84.0999 123.118 83.1797 123.118 82.0446C123.118 80.9095 122.198 79.9893 121.063 79.9893C119.928 79.9893 119.008 80.9095 119.008 82.0446C119.008 83.1797 119.928 84.0999 121.063 84.0999Z" fill="black" fill-opacity="0.21"/>
<path d="M150.813 84.0999C151.948 84.0999 152.868 83.1797 152.868 82.0446C152.868 80.9095 151.948 79.9893 150.813 79.9893C149.678 79.9893 148.758 80.9095 148.758 82.0446C148.758 83.1797 149.678 84.0999 150.813 84.0999Z" fill="black" fill-opacity="0.21"/>
<path d="M182.62 82.0446C182.62 83.1733 181.694 84.0999 180.565 84.0999C179.436 84.0999 178.51 83.1733 178.51 82.0446C178.51 80.9158 179.436 79.9893 180.565 79.9893C181.711 79.9893 182.62 80.9158 182.62 82.0446Z" fill="black" fill-opacity="0.21"/>
<path d="M210.317 84.0999C211.452 84.0999 212.372 83.1797 212.372 82.0446C212.372 80.9095 211.452 79.9893 210.317 79.9893C209.182 79.9893 208.262 80.9095 208.262 82.0446C208.262 83.1797 209.182 84.0999 210.317 84.0999Z" fill="black" fill-opacity="0.21"/>
<path d="M240.069 84.0999C241.204 84.0999 242.124 83.1797 242.124 82.0446C242.124 80.9095 241.204 79.9893 240.069 79.9893C238.934 79.9893 238.014 80.9095 238.014 82.0446C238.014 83.1797 238.934 84.0999 240.069 84.0999Z" fill="black" fill-opacity="0.21"/>
</svg>
