<svg width="16" height="16" viewBox="0 0 16 16" fill="none" xmlns="http://www.w3.org/2000/svg">
<circle cx="8" cy="8" r="7.5" stroke="#FFCB4A"/>
<path d="M7.88525 2.97363C8.06299 2.97363 8.21322 3.03711 8.33594 3.16406C8.46289 3.28678 8.52637 3.43701 8.52637 3.61475C8.52637 3.79248 8.46289 3.94482 8.33594 4.07178C8.21322 4.19873 8.06299 4.26221 7.88525 4.26221C7.70752 4.26221 7.55518 4.19873 7.42822 4.07178C7.30127 3.94482 7.23779 3.79248 7.23779 3.61475C7.23779 3.43701 7.29915 3.28678 7.42188 3.16406C7.54883 3.03711 7.70329 2.97363 7.88525 2.97363ZM8.41211 6.01416V10.686C8.41211 11.05 8.4375 11.2933 8.48828 11.416C8.54329 11.5345 8.62158 11.6234 8.72314 11.6826C8.82894 11.7419 9.01937 11.7715 9.29443 11.7715V12H6.46973V11.7715C6.75326 11.7715 6.94368 11.744 7.04102 11.689C7.13835 11.634 7.21452 11.543 7.26953 11.416C7.32878 11.2891 7.3584 11.0457 7.3584 10.686V8.44531C7.3584 7.81478 7.33936 7.40641 7.30127 7.22021C7.27165 7.0848 7.2251 6.9917 7.16162 6.94092C7.09814 6.8859 7.01139 6.8584 6.90137 6.8584C6.78288 6.8584 6.639 6.89014 6.46973 6.95361L6.38086 6.7251L8.13281 6.01416H8.41211Z" fill="#FFCB4A"/>
</svg>
