<svg width="24" height="23" viewBox="0 0 24 23" fill="none" xmlns="http://www.w3.org/2000/svg">
<path d="M17.5689 0H7.05393C3.63173 0 0.847656 2.7799 0.847656 6.19697V16.6964C0.847656 20.1132 3.63173 22.8932 7.05393 22.8932H17.5691C20.9911 22.8932 23.7752 20.1132 23.7752 16.6964V6.19697C23.7752 2.7799 20.9911 0 17.5689 0V0ZM12.3114 17.7062C8.85459 17.7062 6.04235 14.8982 6.04235 11.4466C6.04235 7.99493 8.85459 5.1869 12.3114 5.1869C15.7683 5.1869 18.5805 7.99493 18.5805 11.4466C18.5805 14.8982 15.7683 17.7062 12.3114 17.7062ZM18.7304 6.66314C17.7089 6.66314 16.878 5.8335 16.878 4.81348C16.878 3.79346 17.7089 2.96365 18.7304 2.96365C19.752 2.96365 20.583 3.79346 20.583 4.81348C20.583 5.8335 19.752 6.66314 18.7304 6.66314Z" fill="#B6CBD8"/>
<path d="M12.3098 6.5293C9.59423 6.5293 7.38477 8.7352 7.38477 11.4467C7.38477 14.1581 9.59423 16.3642 12.3098 16.3642C15.0255 16.3642 17.2347 14.1581 17.2347 11.4467C17.2347 8.7352 15.0255 6.5293 12.3098 6.5293Z" fill="#B6CBD8"/>
<path d="M18.731 4.30469C18.4508 4.30469 18.2227 4.53254 18.2227 4.81246C18.2227 5.09239 18.4508 5.32024 18.731 5.32024C19.0114 5.32024 19.2395 5.09256 19.2395 4.81246C19.2395 4.53237 19.0114 4.30469 18.731 4.30469Z" fill="#B6CBD8"/>
</svg>
