<svg width="316" height="237" viewBox="0 0 316 237" fill="none" xmlns="http://www.w3.org/2000/svg">
<g filter="url(#filter0_d_0_551)">
<path d="M94.3253 207.129L90.9922 211.206C81.3636 203.175 59.9581 182.221 51.3663 162.652C40.6266 138.189 39.8859 123.363 39.8859 122.993C39.8859 122.622 37.2936 87.7819 46.9223 67.7672C49.7628 61.8628 52.187 57.0537 54.1838 53.236C55.7544 50.1404 57.2911 47.3571 58.6616 45.0298C59.5806 43.4401 60.2367 42.3871 60.6247 41.8223C60.0263 42.7581 59.3659 43.8337 58.6616 45.0298C57.5504 46.952 56.0547 49.6589 54.1838 53.236C48.5694 64.3022 42.5241 79.3609 42.1079 91.8589C41.3672 114.097 40.2562 124.475 48.4036 147.085C56.551 169.694 76.5492 197.121 94.3253 207.129Z" fill="url(#paint0_linear_0_551)"/>
<path d="M62.1064 40.3397C60.9954 34.1623 63.5878 20.918 82.8452 17.3599C81.2405 24.5256 75.8089 39.2277 62.1064 40.3397Z" fill="url(#paint1_linear_0_551)"/>
<path d="M52.8486 50.347C48.2835 46.0434 41.4338 33.2109 54.7971 18.8843C57.767 25.5994 63.2011 41.2943 52.8486 50.347Z" fill="url(#paint2_linear_0_551)"/>
<path d="M42.6057 70.9469C37.3888 67.4633 28.5019 55.9497 39.298 39.5981C43.3425 45.7253 51.3094 60.297 42.6057 70.9469Z" fill="url(#paint3_linear_0_551)"/>
<path d="M36.5411 93.4696C30.7585 91.0404 19.8898 82.9633 26.9261 61.4658C32.0591 66.7133 43.0669 81.3601 36.5411 93.4696Z" fill="url(#paint4_linear_0_551)"/>
<path d="M34.7451 115.859C28.6039 114.587 16.3874 108.749 19.1667 86.2993C25.2113 90.4623 38.8252 102.72 34.7451 115.859Z" fill="url(#paint5_linear_0_551)"/>
<path d="M38.7802 139.246C32.5105 139.398 19.2911 136.479 16.9219 113.982C23.751 116.668 39.7834 125.524 38.7802 139.246Z" fill="url(#paint6_linear_0_551)"/>
<path d="M47.6651 163.022C41.7117 164.995 25.8151 164.134 17.668 141.792C24.9827 142.369 44.7024 147.455 47.6651 163.022Z" fill="url(#paint7_linear_0_551)"/>
<path d="M61.3658 182.46C56.0254 185.751 40.3568 188.57 27.2949 168.702C34.5464 167.58 54.9061 167.992 61.3658 182.46Z" fill="url(#paint8_linear_0_551)"/>
<path d="M75.5817 199.393C71.2416 203.924 56.7882 210.603 39.1465 194.668C45.8819 191.755 65.6886 187.02 75.5817 199.393Z" fill="url(#paint9_linear_0_551)"/>
<path d="M57.8691 53.1565C60.0151 47.2587 64.3285 38.1158 86.919 41.452C82.1047 47.7525 68.7726 57.7596 57.8691 53.1565Z" fill="url(#paint10_linear_0_551)"/>
<path d="M49.9414 72.7912C51.4248 66.6927 54.7052 57.1297 77.5255 57.9537C73.4342 64.7469 61.2853 76.1637 49.9414 72.7912Z" fill="url(#paint11_linear_0_551)"/>
<path d="M44.0293 92.7142C45.0558 86.5222 47.617 76.7416 70.4354 75.8662C66.8599 82.9449 55.5923 95.2339 44.0293 92.7142Z" fill="url(#paint12_linear_0_551)"/>
<path d="M43.5893 115.95C42.9159 109.71 44.3299 98.5303 65.8094 92.9707C64.6984 101.866 55.4035 115.268 43.5893 115.95Z" fill="url(#paint13_linear_0_551)"/>
<path d="M47.0239 136.928C46.1814 131.518 43.9594 119.657 64.6982 110.762C65.3579 119.702 59.1432 134.483 47.0239 136.928Z" fill="url(#paint14_linear_0_551)"/>
<path d="M54.8808 157.997C53.1666 152.797 48.6535 141.46 67.6619 129.293C69.772 138.006 66.4382 153.604 54.8808 157.997Z" fill="url(#paint15_linear_0_551)"/>
<path d="M65.7755 176.682C63.2774 171.81 57.0648 161.308 73.9616 146.343C77.3941 154.624 76.5137 170.55 65.7755 176.682Z" fill="url(#paint16_linear_0_551)"/>
<path d="M80.9325 193.17C77.6855 188.763 69.8693 179.396 84.1471 161.91C88.8629 169.532 90.5479 185.393 80.9325 193.17Z" fill="url(#paint17_linear_0_551)"/>
<path d="M212.18 207.129L215.513 211.206C225.141 203.175 246.547 182.221 255.139 162.652C265.878 138.189 266.619 123.363 266.619 122.993C266.619 122.622 269.211 87.7819 259.583 67.7672C256.742 61.8628 254.318 57.0537 252.321 53.236C250.751 50.1404 249.214 47.3571 247.844 45.0298C246.925 43.4401 246.268 42.3871 245.88 41.8223C246.479 42.7581 247.139 43.8337 247.844 45.0298C248.955 46.952 250.45 49.6589 252.321 53.236C257.935 64.3022 263.981 79.3609 264.397 91.8589C265.138 114.097 266.249 124.475 258.101 147.085C249.954 169.694 229.956 197.121 212.18 207.129Z" fill="url(#paint18_linear_0_551)"/>
<path d="M244.397 40.3397C245.508 34.1623 242.916 20.918 223.658 17.3599C225.263 24.5256 230.695 39.2277 244.397 40.3397Z" fill="url(#paint19_linear_0_551)"/>
<path d="M253.657 50.347C258.222 46.0434 265.071 33.2109 251.708 18.8843C248.738 25.5994 243.304 41.2943 253.657 50.347Z" fill="url(#paint20_linear_0_551)"/>
<path d="M263.899 70.9469C269.116 67.4633 278.003 55.9497 267.207 39.5981C263.162 45.7253 255.195 60.297 263.899 70.9469Z" fill="url(#paint21_linear_0_551)"/>
<path d="M269.966 93.4696C275.748 91.0404 286.617 82.9633 279.58 61.4658C274.448 66.7133 263.44 81.3601 269.966 93.4696Z" fill="url(#paint22_linear_0_551)"/>
<path d="M271.758 115.859C277.899 114.587 290.116 108.749 287.337 86.2993C281.292 90.4623 267.678 102.72 271.758 115.859Z" fill="url(#paint23_linear_0_551)"/>
<path d="M267.725 139.246C273.994 139.398 287.214 136.479 289.583 113.982C282.754 116.668 266.722 125.524 267.725 139.246Z" fill="url(#paint24_linear_0_551)"/>
<path d="M258.84 163.022C264.793 164.995 280.69 164.134 288.837 141.792C281.522 142.369 261.803 147.455 258.84 163.022Z" fill="url(#paint25_linear_0_551)"/>
<path d="M245.141 182.46C250.481 185.751 266.15 188.57 279.212 168.702C271.96 167.58 251.6 167.992 245.141 182.46Z" fill="url(#paint26_linear_0_551)"/>
<path d="M230.924 199.393C235.264 203.924 249.718 210.603 267.359 194.668C260.623 191.755 240.817 187.02 230.924 199.393Z" fill="url(#paint27_linear_0_551)"/>
<path d="M248.636 53.1565C246.49 47.2587 242.176 38.1158 219.586 41.452C224.4 47.7525 237.732 57.7596 248.636 53.1565Z" fill="url(#paint28_linear_0_551)"/>
<path d="M256.565 72.7912C255.081 66.6927 251.801 57.1297 228.98 57.9537C233.071 64.7469 245.22 76.1637 256.565 72.7912Z" fill="url(#paint29_linear_0_551)"/>
<path d="M262.476 92.7142C261.45 86.5222 258.889 76.7416 236.07 75.8662C239.646 82.9449 250.913 95.2339 262.476 92.7142Z" fill="url(#paint30_linear_0_551)"/>
<path d="M262.915 115.95C263.589 109.71 262.175 98.5303 240.695 92.9707C241.806 101.866 251.101 115.268 262.915 115.95Z" fill="url(#paint31_linear_0_551)"/>
<path d="M259.479 136.928C260.322 131.518 262.544 119.657 241.805 110.762C241.145 119.702 247.36 134.483 259.479 136.928Z" fill="url(#paint32_linear_0_551)"/>
<path d="M251.626 157.997C253.34 152.797 257.853 141.46 238.845 129.293C236.734 138.006 240.068 153.604 251.626 157.997Z" fill="url(#paint33_linear_0_551)"/>
<path d="M240.73 176.682C243.228 171.81 249.441 161.308 232.544 146.343C229.111 154.624 229.992 170.55 240.73 176.682Z" fill="url(#paint34_linear_0_551)"/>
<path d="M225.573 193.17C228.82 188.763 236.637 179.396 222.359 161.91C217.643 169.532 215.958 185.393 225.573 193.17Z" fill="url(#paint35_linear_0_551)"/>
</g>
<defs>
<filter id="filter0_d_0_551" x="0.921875" y="0.359863" width="314.662" height="235.846" filterUnits="userSpaceOnUse" color-interpolation-filters="sRGB">
<feFlood flood-opacity="0" result="BackgroundImageFix"/>
<feColorMatrix in="SourceAlpha" type="matrix" values="0 0 0 0 0 0 0 0 0 0 0 0 0 0 0 0 0 0 127 0" result="hardAlpha"/>
<feOffset dx="5" dy="4"/>
<feGaussianBlur stdDeviation="10.5"/>
<feComposite in2="hardAlpha" operator="out"/>
<feColorMatrix type="matrix" values="0 0 0 0 0 0 0 0 0 0 0 0 0 0 0 0 0 0 0.19 0"/>
<feBlend mode="normal" in2="BackgroundImageFix" result="effect1_dropShadow_0_551"/>
<feBlend mode="normal" in="SourceGraphic" in2="effect1_dropShadow_0_551" result="shape"/>
</filter>
<linearGradient id="paint0_linear_0_551" x1="66.9468" y1="41.8223" x2="66.9468" y2="211.206" gradientUnits="userSpaceOnUse">
<stop stop-color="white"/>
<stop offset="1" stop-color="#ADADAD"/>
</linearGradient>
<linearGradient id="paint1_linear_0_551" x1="72.367" y1="17.3599" x2="72.367" y2="40.3397" gradientUnits="userSpaceOnUse">
<stop stop-color="white"/>
<stop offset="1" stop-color="#ADADAD"/>
</linearGradient>
<linearGradient id="paint2_linear_0_551" x1="52.9401" y1="18.8843" x2="52.9401" y2="50.347" gradientUnits="userSpaceOnUse">
<stop stop-color="white"/>
<stop offset="1" stop-color="#ADADAD"/>
</linearGradient>
<linearGradient id="paint3_linear_0_551" x1="40.3549" y1="39.5981" x2="40.3549" y2="70.947" gradientUnits="userSpaceOnUse">
<stop stop-color="white"/>
<stop offset="1" stop-color="#ADADAD"/>
</linearGradient>
<linearGradient id="paint4_linear_0_551" x1="31.5923" y1="61.4658" x2="31.5923" y2="93.4696" gradientUnits="userSpaceOnUse">
<stop stop-color="white"/>
<stop offset="1" stop-color="#ADADAD"/>
</linearGradient>
<linearGradient id="paint5_linear_0_551" x1="27.1285" y1="86.2993" x2="27.1285" y2="115.859" gradientUnits="userSpaceOnUse">
<stop stop-color="white"/>
<stop offset="1" stop-color="#ADADAD"/>
</linearGradient>
<linearGradient id="paint6_linear_0_551" x1="27.8735" y1="113.982" x2="27.8735" y2="139.252" gradientUnits="userSpaceOnUse">
<stop stop-color="white"/>
<stop offset="1" stop-color="#ADADAD"/>
</linearGradient>
<linearGradient id="paint7_linear_0_551" x1="32.6665" y1="141.792" x2="32.6665" y2="163.718" gradientUnits="userSpaceOnUse">
<stop stop-color="white"/>
<stop offset="1" stop-color="#ADADAD"/>
</linearGradient>
<linearGradient id="paint8_linear_0_551" x1="44.3304" y1="168.313" x2="44.3304" y2="184.795" gradientUnits="userSpaceOnUse">
<stop stop-color="white"/>
<stop offset="1" stop-color="#ADADAD"/>
</linearGradient>
<linearGradient id="paint9_linear_0_551" x1="57.3641" y1="191.298" x2="57.3641" y2="204.723" gradientUnits="userSpaceOnUse">
<stop stop-color="white"/>
<stop offset="1" stop-color="#ADADAD"/>
</linearGradient>
<linearGradient id="paint10_linear_0_551" x1="72.3941" y1="40.7397" x2="72.3941" y2="54.3292" gradientUnits="userSpaceOnUse">
<stop stop-color="white"/>
<stop offset="1" stop-color="#ADADAD"/>
</linearGradient>
<linearGradient id="paint11_linear_0_551" x1="63.7335" y1="57.9038" x2="63.7335" y2="73.4006" gradientUnits="userSpaceOnUse">
<stop stop-color="white"/>
<stop offset="1" stop-color="#ADADAD"/>
</linearGradient>
<linearGradient id="paint12_linear_0_551" x1="57.2324" y1="75.8662" x2="57.2324" y2="93.0493" gradientUnits="userSpaceOnUse">
<stop stop-color="white"/>
<stop offset="1" stop-color="#ADADAD"/>
</linearGradient>
<linearGradient id="paint13_linear_0_551" x1="54.6381" y1="92.9707" x2="54.6381" y2="115.95" gradientUnits="userSpaceOnUse">
<stop stop-color="white"/>
<stop offset="1" stop-color="#ADADAD"/>
</linearGradient>
<linearGradient id="paint14_linear_0_551" x1="55.6297" y1="110.762" x2="55.6297" y2="136.928" gradientUnits="userSpaceOnUse">
<stop stop-color="white"/>
<stop offset="1" stop-color="#ADADAD"/>
</linearGradient>
<linearGradient id="paint15_linear_0_551" x1="60.7073" y1="129.293" x2="60.7073" y2="157.997" gradientUnits="userSpaceOnUse">
<stop stop-color="white"/>
<stop offset="1" stop-color="#ADADAD"/>
</linearGradient>
<linearGradient id="paint16_linear_0_551" x1="69.1639" y1="146.343" x2="69.1639" y2="176.682" gradientUnits="userSpaceOnUse">
<stop stop-color="white"/>
<stop offset="1" stop-color="#ADADAD"/>
</linearGradient>
<linearGradient id="paint17_linear_0_551" x1="81.8954" y1="161.91" x2="81.8954" y2="193.17" gradientUnits="userSpaceOnUse">
<stop stop-color="white"/>
<stop offset="1" stop-color="#ADADAD"/>
</linearGradient>
<linearGradient id="paint18_linear_0_551" x1="239.558" y1="41.8223" x2="239.558" y2="211.206" gradientUnits="userSpaceOnUse">
<stop stop-color="white"/>
<stop offset="1" stop-color="#ADADAD"/>
</linearGradient>
<linearGradient id="paint19_linear_0_551" x1="234.136" y1="17.3599" x2="234.136" y2="40.3397" gradientUnits="userSpaceOnUse">
<stop stop-color="white"/>
<stop offset="1" stop-color="#ADADAD"/>
</linearGradient>
<linearGradient id="paint20_linear_0_551" x1="253.565" y1="18.8843" x2="253.565" y2="50.347" gradientUnits="userSpaceOnUse">
<stop stop-color="white"/>
<stop offset="1" stop-color="#ADADAD"/>
</linearGradient>
<linearGradient id="paint21_linear_0_551" x1="266.15" y1="39.5981" x2="266.15" y2="70.947" gradientUnits="userSpaceOnUse">
<stop stop-color="white"/>
<stop offset="1" stop-color="#ADADAD"/>
</linearGradient>
<linearGradient id="paint22_linear_0_551" x1="274.914" y1="61.4658" x2="274.914" y2="93.4696" gradientUnits="userSpaceOnUse">
<stop stop-color="white"/>
<stop offset="1" stop-color="#ADADAD"/>
</linearGradient>
<linearGradient id="paint23_linear_0_551" x1="279.375" y1="86.2993" x2="279.375" y2="115.859" gradientUnits="userSpaceOnUse">
<stop stop-color="white"/>
<stop offset="1" stop-color="#ADADAD"/>
</linearGradient>
<linearGradient id="paint24_linear_0_551" x1="278.632" y1="113.982" x2="278.632" y2="139.252" gradientUnits="userSpaceOnUse">
<stop stop-color="white"/>
<stop offset="1" stop-color="#ADADAD"/>
</linearGradient>
<linearGradient id="paint25_linear_0_551" x1="273.838" y1="141.792" x2="273.838" y2="163.718" gradientUnits="userSpaceOnUse">
<stop stop-color="white"/>
<stop offset="1" stop-color="#ADADAD"/>
</linearGradient>
<linearGradient id="paint26_linear_0_551" x1="262.176" y1="168.313" x2="262.176" y2="184.795" gradientUnits="userSpaceOnUse">
<stop stop-color="white"/>
<stop offset="1" stop-color="#ADADAD"/>
</linearGradient>
<linearGradient id="paint27_linear_0_551" x1="249.141" y1="191.298" x2="249.141" y2="204.723" gradientUnits="userSpaceOnUse">
<stop stop-color="white"/>
<stop offset="1" stop-color="#ADADAD"/>
</linearGradient>
<linearGradient id="paint28_linear_0_551" x1="234.111" y1="40.7397" x2="234.111" y2="54.3292" gradientUnits="userSpaceOnUse">
<stop stop-color="white"/>
<stop offset="1" stop-color="#ADADAD"/>
</linearGradient>
<linearGradient id="paint29_linear_0_551" x1="242.773" y1="57.9038" x2="242.773" y2="73.4006" gradientUnits="userSpaceOnUse">
<stop stop-color="white"/>
<stop offset="1" stop-color="#ADADAD"/>
</linearGradient>
<linearGradient id="paint30_linear_0_551" x1="249.273" y1="75.8662" x2="249.273" y2="93.0493" gradientUnits="userSpaceOnUse">
<stop stop-color="white"/>
<stop offset="1" stop-color="#ADADAD"/>
</linearGradient>
<linearGradient id="paint31_linear_0_551" x1="251.867" y1="92.9707" x2="251.867" y2="115.95" gradientUnits="userSpaceOnUse">
<stop stop-color="white"/>
<stop offset="1" stop-color="#ADADAD"/>
</linearGradient>
<linearGradient id="paint32_linear_0_551" x1="250.874" y1="110.762" x2="250.874" y2="136.928" gradientUnits="userSpaceOnUse">
<stop stop-color="white"/>
<stop offset="1" stop-color="#ADADAD"/>
</linearGradient>
<linearGradient id="paint33_linear_0_551" x1="245.799" y1="129.293" x2="245.799" y2="157.997" gradientUnits="userSpaceOnUse">
<stop stop-color="white"/>
<stop offset="1" stop-color="#ADADAD"/>
</linearGradient>
<linearGradient id="paint34_linear_0_551" x1="237.342" y1="146.343" x2="237.342" y2="176.682" gradientUnits="userSpaceOnUse">
<stop stop-color="white"/>
<stop offset="1" stop-color="#ADADAD"/>
</linearGradient>
<linearGradient id="paint35_linear_0_551" x1="224.61" y1="161.91" x2="224.61" y2="193.17" gradientUnits="userSpaceOnUse">
<stop stop-color="white"/>
<stop offset="1" stop-color="#ADADAD"/>
</linearGradient>
</defs>
</svg>
