<svg width="189" height="49" viewBox="0 0 189 49" fill="none" xmlns="http://www.w3.org/2000/svg">
<ellipse cx="24.2303" cy="19.5071" rx="4.47242" ry="5.49145" fill="#53ADCC"/>
<path d="M28.7027 19.507C28.7027 22.5399 26.7003 24.9985 24.2303 24.9985C21.7602 24.9985 19.7579 22.5399 19.7579 19.507C19.7579 18.2742 20.0888 17.1362 20.6474 16.2197C22.6464 16.5835 25.5842 15.7017 27.0346 15.229C28.0519 16.2356 28.7027 17.778 28.7027 19.507Z" fill="url(#paint0_linear_0_167)"/>
<path fill-rule="evenodd" clip-rule="evenodd" d="M1.60656 20.2183C2.19704 19.4672 2.83423 18.6568 3.17034 17.7519C3.61135 16.5646 3.52383 16.0176 3.38284 15.1364C3.28855 14.5471 3.17034 13.8083 3.17034 12.6284C3.17034 11.1835 4.157 6.91506 6.87848 3.91006C9.87896 1.24925 14.6344 -0.335906 20.2674 0.0603809C20.2674 0.0603809 24.1082 0.0394781 28.1366 2.74949C31.1432 4.7721 34.5551 8.9501 34.9302 12.3737C35.8077 20.3844 32.0995 24.4888 32.0995 24.4888C30.0499 24.9105 28.9089 24.5164 29.1839 24.4888C32.3542 22.9886 34.3074 12.034 24.0038 11.8358C21.9092 11.8358 16.2196 12.8549 16.3894 19.9881C16.5593 27.1213 23.3245 27.1213 23.3245 27.1213C25.7809 27.1337 29.0707 26.7817 29.4953 26.725C29.9199 26.6684 30.0614 27.1213 29.6085 28.1121C29.6085 28.1121 28.6744 29.8105 28.2215 31.8768C27.8611 33.5211 28.379 35.3267 28.5913 36.067C28.6458 36.2571 28.6802 36.3769 28.6744 36.4059C28.6461 36.5474 28.5108 36.7419 28.2215 36.8871L14.6627 42.1804C14.1463 42.3682 14.1555 41.933 14.1736 41.0688C14.1774 40.8908 14.1815 40.6946 14.1815 40.482C14.1815 40.482 14.04 36.3492 12.5114 35.5C11.4989 34.9375 9.8901 34.9971 8.42564 35.0514C7.67936 35.079 6.97056 35.1053 6.39724 35.0471C4.69885 34.8748 4.18934 34.198 3.87797 33.5752C3.6522 33.1237 3.73895 32.2555 3.8145 31.4993C3.84315 31.2126 3.87018 30.9419 3.87797 30.7163C3.89281 30.2857 3.55724 30.0031 3.247 29.7418C2.96575 29.505 2.70533 29.2857 2.74571 28.9896C2.78781 28.6808 2.80904 28.6086 2.82665 28.5488C2.84455 28.4879 2.8587 28.4398 2.88724 28.1687C2.91515 27.9036 2.77797 27.776 2.6283 27.6368C2.47434 27.4937 2.30716 27.3382 2.29281 27.0081C2.28128 26.743 2.38241 26.5154 2.48724 26.2795C2.63984 25.9361 2.80028 25.5751 2.63248 25.055C2.51442 24.689 2.09108 24.4707 1.63558 24.2359C0.998966 23.9077 0.29955 23.5471 0.283049 22.7055C0.26767 21.9212 0.90406 21.1118 1.60656 20.2183ZM10.7848 12.1189H15.4271C16.0524 12.1189 16.5593 12.6258 16.5593 13.2512V13.421C16.5593 13.9525 16.1284 14.3834 15.5969 14.3834C15.0654 14.3834 14.6345 14.8143 14.6345 15.3458V23.583C14.6345 24.1145 15.0654 24.5454 15.5969 24.5454C16.1284 24.5454 16.5593 24.9763 16.5593 25.5078V25.706C16.5593 26.3469 16.0397 26.8666 15.3988 26.8666H10.8131C10.1722 26.8666 9.65258 26.3469 9.65258 25.706V25.4371C9.65258 24.9446 10.0518 24.5454 10.5442 24.5454C11.0367 24.5454 11.4359 24.1462 11.4359 23.6538V15.2751C11.4359 14.7826 11.0367 14.3834 10.5442 14.3834C10.0518 14.3834 9.65258 13.9842 9.65258 13.4918V13.2512C9.65258 12.6258 10.1595 12.1189 10.7848 12.1189Z" fill="url(#paint1_radial_0_167)"/>
<path fill-rule="evenodd" clip-rule="evenodd" d="M2.11901 24.41C2.11901 24.41 4.80812 23.1079 7.7803 19.5979C8.88717 18.2908 10.1511 17.4743 11.4039 16.9644V23.6637C11.4039 24.1561 11.0047 24.5553 10.5122 24.5553C10.0198 24.5553 9.62058 24.9545 9.62058 25.447V25.7159C9.62058 26.3568 10.1402 26.8764 10.7811 26.8764H15.3668C16.0077 26.8764 16.5273 26.3568 16.5273 25.7159V25.5177C16.5273 24.9862 16.0965 24.5553 15.5649 24.5553C15.0334 24.5553 14.6025 24.1244 14.6025 23.5929V16.2016C15.4545 16.1161 16.2101 16.1162 16.7912 16.1162L16.8384 16.1162C16.8923 16.1162 16.9457 16.1163 16.9985 16.1163C16.5674 17.1493 16.32 18.425 16.3574 19.998C16.5273 27.1312 23.2925 27.1312 23.2925 27.1312C25.7489 27.1436 29.0387 26.7915 29.4633 26.7349C29.8879 26.6783 30.0294 27.1312 29.5765 28.1219C29.5765 28.1219 28.6424 29.8203 28.1895 31.8867C27.8291 33.531 28.347 35.3366 28.5593 36.0769L28.5593 36.077C28.6138 36.267 28.6482 36.3868 28.6424 36.4157C28.6141 36.5573 28.4788 36.7518 28.1895 36.8969L14.6307 42.1902C14.1143 42.378 14.1235 41.9429 14.1416 41.0786L14.1417 41.0786C14.1454 40.9006 14.1495 40.7045 14.1495 40.4919C14.1495 40.4919 14.008 36.3591 12.4794 35.5099C11.4669 34.9474 9.85814 35.007 8.3937 35.0613H8.39366C7.64738 35.0889 6.93858 35.1152 6.36525 35.057C4.66687 34.8847 4.15735 34.2078 3.84598 33.5851C3.62021 33.1335 3.70696 32.2653 3.78251 31.5091C3.81116 31.2224 3.8382 30.9518 3.84598 30.7261C3.86083 30.2956 3.52525 30.013 3.21502 29.7517C2.93377 29.5149 2.67334 29.2956 2.71372 28.9994C2.75583 28.6907 2.77706 28.6185 2.79466 28.5587C2.81256 28.4978 2.82671 28.4497 2.85525 28.1786C2.88316 27.9134 2.74599 27.7859 2.59631 27.6467C2.44235 27.5036 2.27517 27.3481 2.26082 27.018C2.24929 26.7529 2.35042 26.5253 2.45526 26.2894C2.60785 25.946 2.76829 25.585 2.6005 25.0648C2.51633 24.8039 2.27698 24.6181 1.98145 24.4478L2.11901 24.41ZM29.8713 13.978C33.1262 17.2912 31.4623 23.4054 29.1519 24.4987C28.8769 24.5263 30.018 24.9203 32.0675 24.4987C32.0675 24.4987 35.7757 20.3943 34.8982 12.3836C34.8622 12.0549 34.7982 11.7194 34.7093 11.3794C34.2991 11.6333 32.266 12.8716 29.8713 13.978Z" fill="url(#paint2_radial_0_167)"/>
<path d="M4.44475 12.1107C4.24725 9.44986 6.82185 5.00575 6.82185 5.00575C6.52702 4.61236 3.81125 9.62423 3.62322 12.2567C3.43518 14.8892 4.2777 14.8564 3.93459 17.1209C3.59148 19.3854 0.735964 21.3952 0.735962 22.584C0.73596 23.7729 2.80233 23.8861 3.17032 24.9335C3.5383 25.9808 2.57588 26.462 2.80233 27.0847C3.02878 27.7075 3.34015 27.5943 3.42507 27.9339C3.50999 28.2736 3.17032 28.4718 3.31185 29.0379C3.45338 29.604 4.10443 29.8022 4.35919 30.4532C4.61394 31.1043 4.01951 32.8876 4.10443 33.0291C4.18935 33.1706 5.23668 31.3307 5.26499 30.4532C5.2933 29.5757 4.52903 29.4059 4.27427 28.8114C4.01951 28.217 4.58564 27.9339 4.35919 27.3678C4.13274 26.8017 3.76475 27.1697 3.59491 26.7734C3.42507 26.3771 4.27427 25.6694 4.10443 24.7353C3.93459 23.8012 2.32112 23.4898 2.06636 22.584C1.81161 21.6782 5.01088 19.0457 5.01088 17.0077C5.01088 14.9696 4.64225 14.7715 4.44475 12.1107Z" fill="url(#paint3_radial_0_167)" fill-opacity="0.8"/>
<path d="M13.0786 2.33211C6.56821 4.34187 6.51151 8.89919 5.88878 8.67274C5.26605 8.44629 6.08693 3.09639 12.7389 1.11493C19.3909 -0.866519 23.6369 1.53953 23.4954 1.8509C23.3538 2.16227 19.589 0.322354 13.0786 2.33211Z" fill="url(#paint4_radial_0_167)"/>
<path d="M6.20438 33.8295C4.78906 33.8578 4.76077 33.3766 4.50601 33.4332C4.25125 33.4898 4.4777 34.3107 5.94963 34.5938C7.42157 34.8769 11.1014 33.971 12.8847 35.1316C14.668 36.2922 14.4132 40.4249 14.668 40.2551C14.9228 40.0852 15.4323 34.6504 13.6207 33.688C11.809 32.7256 7.6197 33.8012 6.20438 33.8295Z" fill="url(#paint5_radial_0_167)"/>
<path d="M27.5139 33.8829C27.4006 31.9297 28.1105 30.4012 27.9102 30.2313C27.7098 30.0615 26.0985 32.4198 25.9853 34.2985C25.8721 36.1772 25.1684 36.2201 24.206 36.9132C23.2436 37.6062 22.4187 38.686 22.4187 38.686C22.4187 38.686 27.8535 36.6003 28.0234 36.2606C28.1932 35.9209 27.6271 35.836 27.5139 33.8829Z" fill="url(#paint6_linear_0_167)"/>
<path d="M33.0772 8.58766C29.5672 2.47347 23.0851 0.690171 22.7171 0.860009C22.3491 1.02985 28.7181 4.31339 31.577 8.81412C34.436 13.3148 32.9923 20.816 33.1622 21.4105C33.332 22.0049 36.5872 14.7019 33.0772 8.58766Z" fill="url(#paint7_radial_0_167)"/>
<g clip-path="url(#clip0_0_167)">
<path d="M66.9237 32.1108L66.8637 22.4787L62.3023 30.2085H59.1813L54.6199 22.8109V32.1108H48.168V10.9746H53.9898L60.8318 22.2372L67.4939 10.9746H73.3157L73.3757 32.1108H66.9237ZM91.8644 28.427H83.8819L82.4715 32.1108H75.2693L84.4521 10.9746H91.4142L100.597 32.1108H93.2748L91.8644 28.427ZM89.9138 23.294L87.8731 17.9797L85.8325 23.294H89.9138ZM114.57 32.1108L110.939 26.4644L107.398 32.1108H99.3254L106.918 21.4521L99.5955 10.9746H107.548L111.119 16.2888L114.6 10.9746H122.222L114.93 21.1804L122.673 32.1108H114.57ZM124.299 10.9746H131.381V32.1108H124.299V10.9746ZM154.296 32.1108L154.236 22.4787L149.675 30.2085H146.554L141.992 22.8109V32.1108H135.54V10.9746H141.362L148.204 22.2372L154.866 10.9746H160.688L160.748 32.1108H154.296ZM179.237 28.427H171.254L169.844 32.1108H162.642L171.825 10.9746H178.787L187.97 32.1108H180.647L179.237 28.427ZM177.286 23.294L175.246 17.9797L173.205 23.294H177.286Z" fill="url(#paint8_linear_0_167)"/>
</g>
<defs>
<linearGradient id="paint0_linear_0_167" x1="24.2303" y1="15.229" x2="24.2303" y2="24.9985" gradientUnits="userSpaceOnUse">
<stop stop-color="#009FCB"/>
<stop offset="1" stop-color="#009ECA"/>
</linearGradient>
<radialGradient id="paint1_radial_0_167" cx="0" cy="0" r="1" gradientUnits="userSpaceOnUse" gradientTransform="translate(17.6736 21.1117) rotate(-89.6329) scale(32.8999 27.1014)">
<stop stop-color="#3DB3D7"/>
<stop offset="1" stop-color="#286A8A"/>
</radialGradient>
<radialGradient id="paint2_radial_0_167" cx="0" cy="0" r="1" gradientUnits="userSpaceOnUse" gradientTransform="translate(18.6974 21.5428) rotate(90) scale(28.4525 40.2006)">
<stop stop-color="#05A4D7"/>
<stop offset="1" stop-color="#003D66"/>
</radialGradient>
<radialGradient id="paint3_radial_0_167" cx="0" cy="0" r="1" gradientUnits="userSpaceOnUse" gradientTransform="translate(1.52854 20.6637) rotate(66.5601) scale(9.25078 4.60861)">
<stop stop-color="#328BAD"/>
<stop offset="0.744792" stop-color="#004F77"/>
</radialGradient>
<radialGradient id="paint4_radial_0_167" cx="0" cy="0" r="1" gradientUnits="userSpaceOnUse" gradientTransform="translate(12.1939 4.06481) rotate(-102.529) scale(3.74742 11.5051)">
<stop stop-color="#3189AB"/>
<stop offset="1" stop-color="white" stop-opacity="0"/>
</radialGradient>
<radialGradient id="paint5_radial_0_167" cx="0" cy="0" r="1" gradientUnits="userSpaceOnUse" gradientTransform="translate(11.9453 33.883) rotate(125.838) scale(7.54206 11.3779)">
<stop stop-color="#005079"/>
<stop offset="1" stop-color="#00537B" stop-opacity="0.29"/>
</radialGradient>
<linearGradient id="paint6_linear_0_167" x1="25.267" y1="30.2879" x2="25.267" y2="38.686" gradientUnits="userSpaceOnUse">
<stop stop-color="#014E78"/>
<stop offset="1" stop-color="#014E79" stop-opacity="0.37"/>
</linearGradient>
<radialGradient id="paint7_radial_0_167" cx="0" cy="0" r="1" gradientUnits="userSpaceOnUse" gradientTransform="translate(33.2884 13.7569) rotate(93.5994) scale(17.5847 15.3477)">
<stop stop-color="#004C74"/>
<stop offset="1" stop-color="#1D6587" stop-opacity="0.21"/>
</radialGradient>
<linearGradient id="paint8_linear_0_167" x1="118.069" y1="10.9746" x2="118.069" y2="32.1108" gradientUnits="userSpaceOnUse">
<stop stop-color="#009CCE"/>
<stop offset="1" stop-color="#003D66"/>
</linearGradient>
<clipPath id="clip0_0_167">
<rect width="141.043" height="21.1362" fill="white" transform="translate(47.957 10.9746)"/>
</clipPath>
</defs>
</svg>
