<svg width="29" height="17" viewBox="0 0 29 17" fill="none" xmlns="http://www.w3.org/2000/svg">
<path d="M28.8462 15.3529C28.8111 15.2751 28.7783 15.2106 28.7479 15.1589C28.2448 14.2279 27.2833 13.0851 25.864 11.7302L25.834 11.6991L25.819 11.6839L25.8038 11.6683H25.7886C25.1445 11.0374 24.7366 10.6132 24.5657 10.396C24.2532 9.98232 24.1832 9.56354 24.354 9.13923C24.4747 8.81864 24.928 8.1416 25.7129 7.10719C26.1258 6.55898 26.4528 6.11962 26.6943 5.7886C28.4358 3.40973 29.1909 1.8896 28.9592 1.22761L28.8693 1.07292C28.8088 0.979782 28.6528 0.894582 28.4014 0.81688C28.1495 0.739341 27.8275 0.726518 27.4348 0.778193L23.0864 0.809056C23.0159 0.783409 22.9154 0.785799 22.7843 0.81688C22.6534 0.847961 22.5879 0.863556 22.5879 0.863556L22.5123 0.902407L22.4522 0.949082C22.4018 0.979945 22.3465 1.03423 22.286 1.11182C22.2259 1.18914 22.1756 1.27988 22.1354 1.38329C21.662 2.63472 21.1237 3.79824 20.5196 4.87378C20.1471 5.51512 19.8051 6.07093 19.4927 6.54154C19.1807 7.01199 18.919 7.35861 18.7078 7.58079C18.4962 7.80319 18.3053 7.98136 18.1339 8.11595C17.9627 8.2506 17.832 8.30749 17.7415 8.28668C17.6508 8.26587 17.5654 8.24522 17.4845 8.22457C17.3437 8.13144 17.2304 8.00478 17.145 7.84449C17.0592 7.68419 17.0015 7.48244 16.9713 7.23939C16.9412 6.99618 16.9235 6.78698 16.9184 6.61109C16.9137 6.43542 16.9159 6.18694 16.9261 5.86635C16.9365 5.5456 16.9412 5.32858 16.9412 5.2148C16.9412 4.82173 16.9487 4.39513 16.9637 3.93489C16.9789 3.47466 16.9912 3.11001 17.0015 2.84136C17.0118 2.57245 17.0166 2.28794 17.0166 1.988C17.0166 1.68806 16.9988 1.45284 16.9637 1.28211C16.929 1.1116 16.8757 0.946093 16.8055 0.785637C16.7349 0.625343 16.6316 0.501346 16.496 0.41332C16.3601 0.325403 16.1912 0.255635 15.9902 0.203797C15.4567 0.0797461 14.7772 0.0126401 13.9517 0.00220737C12.0795 -0.0184406 10.8765 0.105773 10.343 0.374686C10.1316 0.488305 9.94033 0.643545 9.7693 0.839919C9.58806 1.06754 9.56278 1.19175 9.69362 1.21218C10.2977 1.30515 10.7253 1.52755 10.977 1.87917L11.0677 2.06549C11.1382 2.19992 11.2087 2.43791 11.2792 2.77915C11.3496 3.12038 11.395 3.49786 11.415 3.91137C11.4652 4.66649 11.4652 5.31288 11.415 5.8506C11.3646 6.38853 11.317 6.8073 11.2715 7.10724C11.2261 7.40718 11.1582 7.65023 11.0677 7.83634C10.977 8.02249 10.9166 8.13628 10.8864 8.17757C10.8562 8.21887 10.831 8.2449 10.811 8.25511C10.6802 8.30662 10.5441 8.33287 10.4033 8.33287C10.2622 8.33287 10.0912 8.26038 9.88993 8.11552C9.6887 7.97066 9.47986 7.77168 9.2634 7.51825C9.04694 7.26477 8.80282 6.91054 8.53094 6.45553C8.25927 6.00051 7.97739 5.46274 7.68547 4.84221L7.44394 4.39219C7.29295 4.10269 7.0867 3.68114 6.82497 3.12794C6.56309 2.57452 6.33161 2.03919 6.13038 1.52206C6.04994 1.30488 5.9291 1.13953 5.76807 1.02575L5.69249 0.979076C5.64225 0.93778 5.5616 0.89393 5.45097 0.8472C5.34017 0.800525 5.22457 0.767053 5.10367 0.746459L0.966527 0.777323C0.543764 0.777323 0.256916 0.875727 0.105876 1.07226L0.0454283 1.16523C0.0152309 1.21702 0 1.29972 0 1.41355C0 1.52734 0.0301974 1.66698 0.090645 1.83233C0.694592 3.29073 1.35137 4.69724 2.06098 6.05208C2.77059 7.40691 3.38723 8.49827 3.91053 9.32517C4.43394 10.1527 4.96744 10.9336 5.51104 11.6677C6.05465 12.4021 6.41448 12.8727 6.59053 13.0795C6.7668 13.2866 6.90525 13.4415 7.00589 13.5449L7.38344 13.9171C7.62502 14.1654 7.97977 14.4627 8.44786 14.8091C8.91605 15.1557 9.43437 15.497 10.0031 15.8334C10.5719 16.1692 11.2337 16.4433 11.9887 16.6553C12.7437 16.8675 13.4784 16.9526 14.1932 16.9115H15.9296C16.2818 16.8803 16.5486 16.7665 16.7299 16.5701L16.79 16.4924C16.8304 16.4306 16.8682 16.3347 16.9031 16.2057C16.9384 16.0764 16.956 15.934 16.956 15.7791C16.9457 15.3344 16.9786 14.9337 17.0539 14.5769C17.1292 14.2203 17.215 13.9514 17.3109 13.7703C17.4068 13.5893 17.515 13.4366 17.6354 13.3128C17.7561 13.1888 17.8421 13.1136 17.8925 13.0878C17.9427 13.0618 17.9827 13.0441 18.0129 13.0335C18.2545 12.9508 18.5388 13.0309 18.8663 13.2742C19.1935 13.5172 19.5004 13.8173 19.7874 14.174C20.0743 14.531 20.419 14.9315 20.8216 15.3761C21.2244 15.8209 21.5766 16.1516 21.8785 16.3691L22.1804 16.5552C22.382 16.6794 22.6437 16.7932 22.9659 16.8966C23.2875 17 23.5692 17.0258 23.8112 16.9742L27.6764 16.9122C28.0587 16.9122 28.3562 16.8472 28.5672 16.7181C28.7786 16.5889 28.9042 16.4465 28.9447 16.2915C28.9851 16.1365 28.9873 15.9605 28.9524 15.7638C28.9166 15.5676 28.8813 15.4304 28.8462 15.3529Z" fill="#B6CBD8"/>
</svg>
