<svg width="417" height="372" viewBox="0 0 417 372" fill="none" xmlns="http://www.w3.org/2000/svg">
<path d="M-0.000316607 322.047L9.26715 297.284L-0.000314442 272.522L9.26715 247.759L-0.000312277 222.996L9.26715 198.234L-0.000310113 173.471L9.26716 148.709L-0.000307948 123.946L9.26716 99.1723L-0.000305782 74.4097L9.26716 49.6471L-0.000303617 24.8734L9.30696 -2.17558e-08L9.76488 0.21051L0.537236 24.8734L9.80467 49.6471L0.537234 74.4097L9.80467 99.1723L0.537232 123.946L9.80467 148.709L0.537229 173.471L9.80466 198.234L0.537227 222.996L9.80466 247.759L0.537225 272.522L9.80466 297.284L0.537223 322.047L9.80466 346.809L0.497395 371.683L0.0395067 371.472L9.26715 346.809L-0.000316607 322.047Z" fill="#287E74" fill-opacity="0.36"/>
<path d="M8.83953 322.047L18.107 297.284L8.83953 272.522L18.107 247.759L8.83953 222.996L18.107 198.234L8.83953 173.471L18.107 148.709L8.83954 123.946L18.107 99.1723L8.83954 74.4097L18.107 49.6471L8.83954 24.8734L18.1468 -2.17558e-08L18.6047 0.21051L9.37708 24.8734L18.6445 49.6471L9.37708 74.4097L18.6445 99.1723L9.37708 123.946L18.6445 148.709L9.37707 173.471L18.6445 198.234L9.37707 222.996L18.6445 247.759L9.37707 272.522L18.6445 297.284L9.37707 322.047L18.6445 346.809L9.33724 371.683L8.87935 371.472L18.107 346.809L8.83953 322.047Z" fill="#287E74" fill-opacity="0.36"/>
<path d="M17.6774 322.047L26.9449 297.284L17.6774 272.522L26.9449 247.759L17.6774 222.996L26.9449 198.234L17.6774 173.471L26.9449 148.709L17.6774 123.946L26.9449 99.1723L17.6774 74.4097L26.9449 49.6471L17.6774 24.8734L26.9847 -2.17558e-08L27.4426 0.21051L18.215 24.8734L27.4824 49.6471L18.215 74.4097L27.4824 99.1723L18.215 123.946L27.4824 148.709L18.215 173.471L27.4824 198.234L18.215 222.996L27.4824 247.759L18.215 272.522L27.4824 297.284L18.215 322.047L27.4824 346.809L18.1751 371.683L17.7172 371.472L26.9449 346.809L17.6774 322.047Z" fill="#287E74" fill-opacity="0.36"/>
<path d="M26.5173 322.047L35.7847 297.284L26.5173 272.522L35.7847 247.759L26.5173 222.996L35.7847 198.234L26.5173 173.471L35.7847 148.709L26.5173 123.946L35.7847 99.1723L26.5173 74.4097L35.7847 49.6471L26.5173 24.8734L35.8245 -2.17558e-08L36.2824 0.21051L27.0548 24.8734L36.3222 49.6471L27.0548 74.4097L36.3222 99.1723L27.0548 123.946L36.3222 148.709L27.0548 173.471L36.3222 198.234L27.0548 222.996L36.3222 247.759L27.0548 272.522L36.3222 297.284L27.0548 322.047L36.3222 346.809L27.015 371.683L26.5571 371.472L35.7847 346.809L26.5173 322.047Z" fill="#287E74" fill-opacity="0.36"/>
<path d="M35.3569 322.047L44.6244 297.284L35.3569 272.522L44.6244 247.759L35.3569 222.996L44.6244 198.234L35.3569 173.471L44.6244 148.709L35.3569 123.946L44.6244 99.1723L35.3569 74.4097L44.6244 49.6471L35.3569 24.8734L44.6642 -2.219e-08L45.1321 0.21051L35.8945 24.8734L45.1719 49.6471L35.8945 74.4097L45.1719 99.1723L35.8945 123.946L45.1719 148.709L35.8945 173.471L45.1719 198.234L35.8945 222.996L45.1718 247.759L35.8945 272.522L45.1718 297.284L35.8945 322.047L45.1718 346.809L35.8546 371.683L35.3968 371.472L44.6244 346.809L35.3569 322.047Z" fill="#287E74" fill-opacity="0.36"/>
<path d="M44.1968 322.047L53.4742 297.285L44.1968 272.522L53.4742 247.759L44.1968 222.997L53.4742 198.234L44.1968 173.471L53.4742 148.709L44.1968 123.946L53.4742 99.1726L44.1968 74.41L53.4742 49.6473L44.1968 24.8737L53.514 0.000244119L53.9719 0.210754L44.7343 24.8737L54.0117 49.6473L44.7343 74.41L54.0117 99.1726L44.7343 123.946L54.0117 148.709L44.7343 173.471L54.0117 198.234L44.7343 222.997L54.0117 247.759L44.7343 272.522L54.0117 297.285L44.7343 322.047L54.0117 346.81L44.6945 371.683L44.2366 371.473L53.4742 346.81L44.1968 322.047Z" fill="#287E74" fill-opacity="0.36"/>
<path d="M53.0347 322.047L62.312 297.284L53.0347 272.522L62.312 247.759L53.0347 222.996L62.312 198.234L53.0347 173.471L62.3121 148.709L53.0347 123.946L62.3121 99.1723L53.0347 74.4097L62.3121 49.6471L53.0347 24.8734L62.3519 -2.17558e-08L62.8098 0.21051L53.5722 24.8734L62.8496 49.6471L53.5722 74.4097L62.8496 99.1723L53.5722 123.946L62.8496 148.709L53.5722 173.471L62.8496 198.234L53.5722 222.996L62.8496 247.759L53.5722 272.522L62.8496 297.284L53.5722 322.047L62.8496 346.809L53.5324 371.683L53.0745 371.472L62.312 346.809L53.0347 322.047Z" fill="#287E74" fill-opacity="0.36"/>
<path d="M61.8745 322.047L71.1519 297.284L61.8745 272.522L71.1519 247.759L61.8745 222.996L71.1519 198.234L61.8745 173.471L71.1519 148.709L61.8745 123.946L71.1519 99.1723L61.8745 74.4097L71.1519 49.6471L61.8745 24.8734L71.1917 -2.17558e-08L71.6496 0.21051L62.422 24.8734L71.6894 49.6471L62.422 74.4097L71.6894 99.1723L62.422 123.946L71.6894 148.709L62.422 173.471L71.6894 198.234L62.422 222.996L71.6894 247.759L62.422 272.522L71.6894 297.284L62.422 322.047L71.6894 346.809L62.3822 371.683L61.9143 371.472L71.1519 346.809L61.8745 322.047Z" fill="#287E74" fill-opacity="0.36"/>
<path d="M70.7243 322.047L79.9917 297.284L70.7243 272.522L79.9917 247.759L70.7243 222.996L79.9917 198.234L70.7243 173.471L79.9917 148.709L70.7243 123.946L79.9917 99.1723L70.7243 74.4097L79.9917 49.6471L70.7243 24.8734L80.0316 -2.17558e-08L80.4895 0.21051L71.2619 24.8734L80.5293 49.6471L71.2618 74.4097L80.5293 99.1723L71.2618 123.946L80.5293 148.709L71.2618 173.471L80.5293 198.234L71.2618 222.996L80.5293 247.759L71.2618 272.522L80.5293 297.284L71.2618 322.047L80.5293 346.809L71.222 371.683L70.7641 371.472L79.9917 346.809L70.7243 322.047Z" fill="#287E74" fill-opacity="0.36"/>
<path d="M79.5641 322.047L88.8316 297.284L79.5641 272.522L88.8316 247.759L79.5641 222.996L88.8316 198.234L79.5641 173.471L88.8316 148.709L79.5642 123.946L88.8316 99.1723L79.5642 74.4097L88.8316 49.6471L79.5642 24.8734L88.8714 -2.17558e-08L89.3293 0.21051L80.1017 24.8734L89.3691 49.6471L80.1017 74.4097L89.3691 99.1723L80.1017 123.946L89.3691 148.709L80.1017 173.471L89.3691 198.234L80.1017 222.996L89.3691 247.759L80.1017 272.522L89.3691 297.284L80.1017 322.047L89.3691 346.809L80.0619 371.683L79.6039 371.472L88.8316 346.809L79.5641 322.047Z" fill="#287E74" fill-opacity="0.36"/>
<path d="M88.404 322.047L97.6715 297.284L88.404 272.522L97.6715 247.759L88.404 222.996L97.6715 198.234L88.404 173.471L97.6715 148.709L88.404 123.946L97.6715 99.1723L88.404 74.4097L97.6715 49.6471L88.404 24.8734L97.7113 -2.17558e-08L98.1692 0.21051L88.9415 24.8734L98.209 49.6471L88.9415 74.4097L98.209 99.1723L88.9415 123.946L98.209 148.709L88.9415 173.471L98.209 198.234L88.9415 222.996L98.209 247.759L88.9415 272.522L98.209 297.284L88.9415 322.047L98.209 346.809L88.9017 371.683L88.4438 371.472L97.6715 346.809L88.404 322.047Z" fill="#287E74" fill-opacity="0.36"/>
<path d="M97.2417 322.047L106.509 297.284L97.2417 272.522L106.509 247.759L97.2417 222.996L106.509 198.234L97.2417 173.471L106.509 148.709L97.2417 123.946L106.509 99.1723L97.2417 74.4097L106.509 49.6471L97.2417 24.8734L106.549 -2.21913e-08L107.017 0.21051L97.7792 24.8734L107.057 49.6471L97.7792 74.4097L107.057 99.1723L97.7792 123.946L107.057 148.709L97.7792 173.471L107.057 198.234L97.7792 222.996L107.057 247.759L97.7792 272.522L107.057 297.284L97.7792 322.047L107.057 346.809L97.7394 371.683L97.2815 371.472L106.509 346.809L97.2417 322.047Z" fill="#287E74" fill-opacity="0.36"/>
<path d="M106.082 322.047L115.349 297.285L106.082 272.522L115.349 247.759L106.082 222.997L115.349 198.234L106.082 173.471L115.349 148.709L106.082 123.946L115.349 99.1726L106.082 74.41L115.349 49.6473L106.082 24.8737L115.389 0.000244118L115.857 0.210754L106.619 24.8737L115.896 49.6473L106.619 74.41L115.896 99.1726L106.619 123.946L115.896 148.709L106.619 173.471L115.896 198.234L106.619 222.997L115.896 247.759L106.619 272.522L115.896 297.285L106.619 322.047L115.896 346.81L106.579 371.683L106.121 371.473L115.349 346.81L106.082 322.047Z" fill="#287E74" fill-opacity="0.36"/>
<path d="M114.921 74.4097L124.199 49.6471L114.921 24.8734L124.239 -2.17558e-08L124.696 0.21051L115.459 24.8734L124.736 49.6471L115.459 74.4097L124.736 99.1723L115.459 123.946L124.736 148.709L115.459 173.471L124.736 198.234L115.459 222.996L124.736 247.759L115.459 272.522L124.736 297.284L115.459 322.047L124.736 346.809L115.419 371.683L114.961 371.472L124.199 346.809L114.921 322.047L124.199 297.284L114.921 272.522L124.199 247.759L114.921 222.996L124.199 198.234L114.921 173.471L124.199 148.709L114.921 123.946L124.199 99.1723L114.921 74.4097Z" fill="#287E74" fill-opacity="0.36"/>
<path d="M123.761 322.047L133.039 297.285L123.761 272.522L133.039 247.759L123.761 222.997L133.039 198.234L123.761 173.471L133.039 148.709L123.761 123.946L133.039 99.1726L123.761 74.41L133.039 49.6473L123.761 24.8737L133.078 0.000244119L133.536 0.210754L124.309 24.8737L133.576 49.6473L124.309 74.41L133.576 99.1726L124.309 123.946L133.576 148.709L124.309 173.471L133.576 198.234L124.309 222.997L133.576 247.759L124.309 272.522L133.576 297.285L124.309 322.047L133.576 346.81L124.269 371.683L123.801 371.473L133.039 346.81L123.761 322.047Z" fill="#287E74" fill-opacity="0.36"/>
<path d="M132.601 322.047L141.878 297.284L132.601 272.522L141.878 247.759L132.601 222.996L141.878 198.234L132.601 173.471L141.878 148.709L132.601 123.946L141.878 99.1723L132.601 74.4097L141.879 49.6471L132.601 24.8734L141.918 -2.17558e-08L142.376 0.21051L133.149 24.8734L142.416 49.6471L133.149 74.4097L142.416 99.1723L133.149 123.946L142.416 148.709L133.149 173.471L142.416 198.234L133.149 222.996L142.416 247.759L133.149 272.522L142.416 297.284L133.149 322.047L142.416 346.809L133.109 371.683L132.641 371.472L141.878 346.809L132.601 322.047Z" fill="#287E74" fill-opacity="0.36"/>
<path d="M141.449 322.047L150.716 297.284L141.449 272.522L150.716 247.759L141.449 222.996L150.716 198.234L141.449 173.471L150.716 148.709L141.449 123.946L150.716 99.1723L141.449 74.4097L150.716 49.6471L141.449 24.8734L150.756 -2.17558e-08L151.214 0.21051L141.986 24.8734L151.254 49.6471L141.986 74.4097L151.254 99.1723L141.986 123.946L151.254 148.709L141.986 173.471L151.254 198.234L141.986 222.996L151.254 247.759L141.986 272.522L151.254 297.284L141.986 322.047L151.254 346.809L141.947 371.683L141.489 371.472L150.716 346.809L141.449 322.047Z" fill="#287E74" fill-opacity="0.36"/>
<path d="M150.289 322.047L159.556 297.284L150.289 272.522L159.556 247.759L150.289 222.996L159.556 198.234L150.289 173.471L159.556 148.709L150.289 123.946L159.556 99.1723L150.289 74.4097L159.556 49.6471L150.289 24.8734L159.596 -2.17558e-08L160.054 0.21051L150.826 24.8734L160.094 49.6471L150.826 74.4097L160.094 99.1723L150.826 123.946L160.094 148.709L150.826 173.471L160.094 198.234L150.826 222.996L160.094 247.759L150.826 272.522L160.094 297.284L150.826 322.047L160.094 346.809L150.786 371.683L150.329 371.472L159.556 346.809L150.289 322.047Z" fill="#287E74" fill-opacity="0.36"/>
<path d="M159.129 322.047L168.396 297.284L159.129 272.522L168.396 247.759L159.129 222.996L168.396 198.234L159.129 173.471L168.396 148.709L159.129 123.946L168.396 99.1723L159.129 74.4097L168.396 49.6471L159.129 24.8734L168.436 -2.17558e-08L168.894 0.21051L159.666 24.8734L168.934 49.6471L159.666 74.4097L168.934 99.1723L159.666 123.946L168.934 148.709L159.666 173.471L168.934 198.234L159.666 222.996L168.934 247.759L159.666 272.522L168.934 297.284L159.666 322.047L168.934 346.809L159.626 371.683L159.168 371.472L168.396 346.809L159.129 322.047Z" fill="#287E74" fill-opacity="0.36"/>
<path d="M167.968 322.047L177.236 297.284L167.968 272.522L177.236 247.759L167.968 222.996L177.236 198.234L167.968 173.471L177.236 148.709L167.968 123.946L177.236 99.1723L167.968 74.4097L177.236 49.6471L167.968 24.8734L177.276 -2.21913e-08L177.743 0.21051L168.506 24.8734L177.783 49.6471L168.506 74.4097L177.783 99.1723L168.506 123.946L177.783 148.709L168.506 173.471L177.783 198.234L168.506 222.996L177.783 247.759L168.506 272.522L177.783 297.284L168.506 322.047L177.783 346.809L168.466 371.683L168.008 371.472L177.236 346.809L167.968 322.047Z" fill="#287E74" fill-opacity="0.36"/>
<path d="M176.808 322.047L186.076 297.284L176.808 272.522L186.076 247.759L176.808 222.996L186.076 198.234L176.808 173.471L186.076 148.709L176.808 123.946L186.076 99.1723L176.808 74.4097L186.076 49.6471L176.808 24.8734L186.115 -2.21907e-08L186.583 0.21051L177.346 24.8734L186.623 49.6471L177.346 74.4097L186.623 99.1723L177.346 123.946L186.623 148.709L177.346 173.471L186.623 198.234L177.346 222.996L186.623 247.759L177.346 272.522L186.623 297.284L177.346 322.047L186.623 346.809L177.306 371.683L176.848 371.472L186.076 346.809L176.808 322.047Z" fill="#287E74" fill-opacity="0.36"/>
<path d="M185.646 322.047L194.923 297.285L185.646 272.522L194.923 247.759L185.646 222.997L194.923 198.234L185.646 173.471L194.923 148.709L185.646 123.946L194.923 99.1726L185.646 74.41L194.923 49.6473L185.646 24.8737L194.963 0.000244119L195.421 0.210754L186.184 24.8737L195.461 49.6473L186.184 74.41L195.461 99.1726L186.184 123.946L195.461 148.709L186.184 173.471L195.461 198.234L186.184 222.997L195.461 247.759L186.184 272.522L195.461 297.285L186.184 322.047L195.461 346.81L186.144 371.683L185.686 371.473L194.923 346.81L185.646 322.047Z" fill="#287E74" fill-opacity="0.36"/>
<path d="M194.486 322.047L203.763 297.284L194.486 272.522L203.763 247.759L194.486 222.996L203.763 198.234L194.486 173.471L203.763 148.709L194.486 123.946L203.763 99.1723L194.486 74.4097L203.763 49.6471L194.486 24.8734L203.803 -2.17558e-08L204.261 0.21051L195.033 24.8734L204.301 49.6471L195.033 74.4097L204.301 99.1723L195.033 123.946L204.301 148.709L195.033 173.471L204.301 198.234L195.033 222.996L204.301 247.759L195.033 272.522L204.301 297.284L195.033 322.047L204.301 346.809L194.993 371.683L194.526 371.472L203.763 346.809L194.486 322.047Z" fill="#287E74" fill-opacity="0.36"/>
<path d="M203.336 322.047L212.603 297.284L203.336 272.522L212.603 247.759L203.336 222.996L212.603 198.234L203.336 173.471L212.603 148.709L203.336 123.946L212.603 99.1723L203.336 74.4097L212.603 49.6471L203.336 24.8734L212.643 -2.17558e-08L213.101 0.21051L203.873 24.8734L213.141 49.6471L203.873 74.4097L213.141 99.1723L203.873 123.946L213.141 148.709L203.873 173.471L213.141 198.234L203.873 222.996L213.141 247.759L203.873 272.522L213.141 297.284L203.873 322.047L213.141 346.809L203.833 371.683L203.366 371.472L212.603 346.809L203.336 322.047Z" fill="#287E74" fill-opacity="0.36"/>
<path d="M212.175 322.047L221.443 297.285L212.175 272.522L221.443 247.759L212.175 222.997L221.443 198.234L212.175 173.471L221.443 148.709L212.175 123.946L221.443 99.1726L212.175 74.41L221.443 49.6473L212.175 24.8737L221.483 0.000244119L221.941 0.210754L212.713 24.8737L221.98 49.6473L212.713 74.41L221.98 99.1726L212.713 123.946L221.98 148.709L212.713 173.471L221.98 198.234L212.713 222.997L221.98 247.759L212.713 272.522L221.98 297.285L212.713 322.047L221.98 346.81L212.673 371.683L212.215 371.473L221.443 346.81L212.175 322.047Z" fill="#287E74" fill-opacity="0.36"/>
<path d="M221.013 322.047L230.281 297.284L221.013 272.522L230.281 247.759L221.013 222.996L230.281 198.234L221.013 173.471L230.281 148.709L221.013 123.946L230.281 99.1723L221.013 74.4097L230.281 49.6471L221.013 24.8734L230.321 -2.17558e-08L230.779 0.21051L221.551 24.8734L230.818 49.6471L221.551 74.4097L230.818 99.1723L221.551 123.946L230.818 148.709L221.551 173.471L230.818 198.234L221.551 222.996L230.818 247.759L221.551 272.522L230.818 297.284L221.551 322.047L230.818 346.809L221.511 371.683L221.053 371.472L230.281 346.809L221.013 322.047Z" fill="#287E74" fill-opacity="0.36"/>
<path d="M229.853 322.047L239.121 297.285L229.853 272.522L239.121 247.759L229.853 222.997L239.121 198.234L229.853 173.471L239.121 148.709L229.853 123.946L239.121 99.1726L229.853 74.41L239.121 49.6473L229.853 24.8737L239.16 0.000244119L239.618 0.210754L230.391 24.8737L239.658 49.6473L230.391 74.41L239.658 99.1726L230.391 123.946L239.658 148.709L230.391 173.471L239.658 198.234L230.391 222.997L239.658 247.759L230.391 272.522L239.658 297.285L230.391 322.047L239.658 346.81L230.351 371.683L229.893 371.473L239.121 346.81L229.853 322.047Z" fill="#287E74" fill-opacity="0.36"/>
<path d="M238.693 322.047L247.96 297.284L238.693 272.522L247.96 247.759L238.693 222.996L247.96 198.234L238.693 173.471L247.96 148.709L238.693 123.946L247.96 99.1723L238.693 74.4097L247.96 49.6471L238.693 24.8734L248 -2.21907e-08L248.468 0.21051L239.23 24.8734L248.508 49.6471L239.23 74.4097L248.508 99.1723L239.23 123.946L248.508 148.709L239.23 173.471L248.508 198.234L239.23 222.996L248.508 247.759L239.23 272.522L248.508 297.284L239.23 322.047L248.508 346.809L239.191 371.683L238.733 371.472L247.96 346.809L238.693 322.047Z" fill="#287E74" fill-opacity="0.36"/>
<path d="M247.533 322.047L256.8 297.284L247.533 272.522L256.8 247.759L247.533 222.996L256.8 198.234L247.533 173.471L256.8 148.709L247.533 123.946L256.8 99.1723L247.533 74.4097L256.8 49.6471L247.533 24.8734L256.84 -2.21907e-08L257.308 0.21051L248.07 24.8734L257.348 49.6471L248.07 74.4097L257.348 99.1723L248.07 123.946L257.348 148.709L248.07 173.471L257.348 198.234L248.07 222.996L257.348 247.759L248.07 272.522L257.348 297.284L248.07 322.047L257.348 346.809L248.03 371.683L247.573 371.472L256.8 346.809L247.533 322.047Z" fill="#287E74" fill-opacity="0.36"/>
<path d="M256.373 322.047L265.65 297.284L256.373 272.522L265.65 247.759L256.373 222.996L265.65 198.234L256.373 173.471L265.65 148.709L256.373 123.946L265.65 99.1723L256.373 74.4097L265.65 49.6471L256.373 24.8734L265.69 -2.17558e-08L266.148 0.21051L256.91 24.8734L266.187 49.6471L256.91 74.4097L266.187 99.1723L256.91 123.946L266.187 148.709L256.91 173.471L266.187 198.234L256.91 222.996L266.187 247.759L256.91 272.522L266.187 297.284L256.91 322.047L266.187 346.809L256.87 371.683L256.412 371.472L265.65 346.809L256.373 322.047Z" fill="#287E74" fill-opacity="0.36"/>
<path d="M265.21 322.047L274.488 297.284L265.21 272.522L274.488 247.759L265.21 222.996L274.488 198.234L265.21 173.471L274.488 148.709L265.21 123.946L274.488 99.1723L265.21 74.4097L274.488 49.6471L265.21 24.8734L274.528 -2.17558e-08L274.986 0.21051L265.758 24.8734L275.025 49.6471L265.758 74.4097L275.025 99.1723L265.758 123.946L275.025 148.709L265.758 173.471L275.025 198.234L265.758 222.996L275.025 247.759L265.758 272.522L275.025 297.284L265.758 322.047L275.025 346.809L265.718 371.683L265.25 371.472L274.488 346.809L265.21 322.047Z" fill="#287E74" fill-opacity="0.36"/>
<path d="M274.06 322.047L283.328 297.284L274.06 272.522L283.328 247.759L274.06 222.996L283.328 198.234L274.06 173.471L283.328 148.709L274.06 123.946L283.328 99.1723L274.06 74.4097L283.328 49.6471L274.06 24.8734L283.368 -2.17558e-08L283.825 0.21051L274.598 24.8734L283.865 49.6471L274.598 74.4097L283.865 99.1723L274.598 123.946L283.865 148.709L274.598 173.471L283.865 198.234L274.598 222.996L283.865 247.759L274.598 272.522L283.865 297.284L274.598 322.047L283.865 346.809L274.558 371.683L274.1 371.472L283.328 346.809L274.06 322.047Z" fill="#287E74" fill-opacity="0.36"/>
<path d="M282.9 322.047L292.168 297.284L282.9 272.522L292.168 247.759L282.9 222.996L292.168 198.234L282.9 173.471L292.168 148.709L282.9 123.946L292.168 99.1723L282.9 74.4097L292.168 49.6471L282.9 24.8734L292.207 -2.17558e-08L292.665 0.21051L283.438 24.8734L292.705 49.6471L283.438 74.4097L292.705 99.1723L283.438 123.946L292.705 148.709L283.438 173.471L292.705 198.234L283.438 222.996L292.705 247.759L283.438 272.522L292.705 297.284L283.438 322.047L292.705 346.809L283.398 371.683L282.94 371.472L292.168 346.809L282.9 322.047Z" fill="#287E74" fill-opacity="0.36"/>
<path d="M291.74 322.047L301.007 297.284L291.74 272.522L301.007 247.759L291.74 222.996L301.007 198.234L291.74 173.471L301.007 148.709L291.74 123.946L301.007 99.1723L291.74 74.4097L301.007 49.6471L291.74 24.8734L301.047 -2.17558e-08L301.505 0.21051L292.277 24.8734L301.545 49.6471L292.277 74.4097L301.545 99.1723L292.277 123.946L301.545 148.709L292.277 173.471L301.545 198.234L292.277 222.996L301.545 247.759L292.277 272.522L301.545 297.284L292.277 322.047L301.545 346.809L292.238 371.683L291.78 371.472L301.007 346.809L291.74 322.047Z" fill="#287E74" fill-opacity="0.36"/>
<path d="M300.58 322.047L309.847 297.284L300.58 272.522L309.847 247.759L300.58 222.996L309.847 198.234L300.58 173.471L309.847 148.709L300.58 123.946L309.847 99.1723L300.58 74.4097L309.847 49.6471L300.58 24.8734L309.887 -2.17558e-08L310.345 0.21051L301.117 24.8734L310.385 49.6471L301.117 74.4097L310.385 99.1723L301.117 123.946L310.385 148.709L301.117 173.471L310.385 198.234L301.117 222.996L310.385 247.759L301.117 272.522L310.385 297.284L301.117 322.047L310.385 346.809L301.077 371.683L300.62 371.472L309.847 346.809L300.58 322.047Z" fill="#287E74" fill-opacity="0.36"/>
<path d="M309.417 322.047L318.685 297.284L309.417 272.522L318.685 247.759L309.417 222.996L318.685 198.234L309.417 173.471L318.685 148.709L309.417 123.946L318.685 99.1723L309.417 74.4097L318.685 49.6471L309.417 24.8734L318.725 -2.21907e-08L319.193 0.21051L309.955 24.8734L319.232 49.6471L309.955 74.4097L319.232 99.1723L309.955 123.946L319.232 148.709L309.955 173.471L319.232 198.234L309.955 222.996L319.232 247.759L309.955 272.522L319.232 297.284L309.955 322.047L319.232 346.809L309.915 371.683L309.457 371.472L318.685 346.809L309.417 322.047Z" fill="#287E74" fill-opacity="0.36"/>
<path d="M318.257 322.047L327.525 297.284L318.257 272.522L327.525 247.759L318.257 222.996L327.525 198.234L318.257 173.471L327.525 148.709L318.257 123.946L327.525 99.1723L318.257 74.4097L327.525 49.6471L318.257 24.8734L327.565 -2.2191e-08L328.032 0.21051L318.795 24.8734L328.072 49.6471L318.795 74.4097L328.072 99.1723L318.795 123.946L328.072 148.709L318.795 173.471L328.072 198.234L318.795 222.996L328.072 247.759L318.795 272.522L328.072 297.284L318.795 322.047L328.072 346.809L318.755 371.683L318.297 371.472L327.525 346.809L318.257 322.047Z" fill="#287E74" fill-opacity="0.36"/>
<path d="M327.097 322.047L336.375 297.284L327.097 272.522L336.375 247.759L327.097 222.996L336.375 198.234L327.097 173.471L336.375 148.709L327.097 123.946L336.375 99.1723L327.097 74.4097L336.375 49.6471L327.097 24.8734L336.414 -2.17558e-08L336.872 0.21051L327.635 24.8734L336.912 49.6471L327.635 74.4097L336.912 99.1723L327.635 123.946L336.912 148.709L327.635 173.471L336.912 198.234L327.635 222.996L336.912 247.759L327.635 272.522L336.912 297.284L327.635 322.047L336.912 346.809L327.595 371.683L327.137 371.472L336.375 346.809L327.097 322.047Z" fill="#287E74" fill-opacity="0.36"/>
<path d="M335.937 322.047L345.214 297.284L335.937 272.522L345.214 247.759L335.937 222.996L345.214 198.234L335.937 173.471L345.214 148.709L335.937 123.946L345.214 99.1723L335.937 74.4097L345.214 49.6471L335.937 24.8734L345.254 -2.17558e-08L345.712 0.21051L336.485 24.8734L345.752 49.6471L336.485 74.4097L345.752 99.1723L336.485 123.946L345.752 148.709L336.485 173.471L345.752 198.234L336.485 222.996L345.752 247.759L336.485 272.522L345.752 297.284L336.485 322.047L345.752 346.809L336.445 371.683L335.977 371.472L345.214 346.809L335.937 322.047Z" fill="#287E74" fill-opacity="0.36"/>
<path d="M344.785 322.047L354.052 297.285L344.785 272.522L354.052 247.759L344.785 222.997L354.052 198.234L344.785 173.471L354.052 148.709L344.785 123.946L354.052 99.1726L344.785 74.41L354.052 49.6473L344.785 24.8737L354.092 0.000244119L354.55 0.210754L345.322 24.8737L354.59 49.6473L345.322 74.41L354.59 99.1726L345.322 123.946L354.59 148.709L345.322 173.471L354.59 198.234L345.322 222.997L354.59 247.759L345.322 272.522L354.59 297.285L345.322 322.047L354.59 346.81L345.283 371.683L344.825 371.473L354.052 346.81L344.785 322.047Z" fill="#287E74" fill-opacity="0.36"/>
<path d="M353.625 322.047L362.892 297.284L353.625 272.522L362.892 247.759L353.625 222.996L362.892 198.234L353.625 173.471L362.892 148.709L353.625 123.946L362.892 99.1723L353.625 74.4097L362.892 49.6471L353.625 24.8734L362.932 -2.17558e-08L363.39 0.21051L354.162 24.8734L363.43 49.6471L354.162 74.4097L363.43 99.1723L354.162 123.946L363.43 148.709L354.162 173.471L363.43 198.234L354.162 222.996L363.43 247.759L354.162 272.522L363.43 297.284L354.162 322.047L363.43 346.809L354.122 371.683L353.665 371.472L362.892 346.809L353.625 322.047Z" fill="#287E74" fill-opacity="0.36"/>
<path d="M362.465 322.047L371.732 297.284L362.465 272.522L371.732 247.759L362.465 222.996L371.732 198.234L362.465 173.471L371.732 148.709L362.465 123.946L371.732 99.1723L362.465 74.4097L371.732 49.6471L362.465 24.8734L371.772 -2.17558e-08L372.23 0.21051L363.002 24.8734L372.27 49.6471L363.002 74.4097L372.27 99.1723L363.002 123.946L372.27 148.709L363.002 173.471L372.27 198.234L363.002 222.996L372.27 247.759L363.002 272.522L372.27 297.284L363.002 322.047L372.27 346.809L362.962 371.683L362.504 371.472L371.732 346.809L362.465 322.047Z" fill="#287E74" fill-opacity="0.36"/>
<path d="M371.304 322.047L380.572 297.284L371.304 272.522L380.572 247.759L371.304 222.996L380.572 198.234L371.304 173.471L380.572 148.709L371.304 123.946L380.572 99.1723L371.304 74.4097L380.572 49.6471L371.304 24.8734L380.611 -2.21908e-08L381.079 0.21051L371.842 24.8734L381.119 49.6471L371.842 74.4097L381.119 99.1723L371.842 123.946L381.119 148.709L371.842 173.471L381.119 198.234L371.842 222.996L381.119 247.759L371.842 272.522L381.119 297.284L371.842 322.047L381.119 346.809L371.802 371.683L371.344 371.472L380.572 346.809L371.304 322.047Z" fill="#287E74" fill-opacity="0.36"/>
<path d="M380.144 322.047L389.411 297.284L380.144 272.522L389.411 247.759L380.144 222.996L389.411 198.234L380.144 173.471L389.411 148.709L380.144 123.946L389.411 99.1723L380.144 74.4097L389.411 49.6471L380.144 24.8734L389.451 -2.21909e-08L389.919 0.21051L380.682 24.8734L389.959 49.6471L380.682 74.4097L389.959 99.1723L380.682 123.946L389.959 148.709L380.682 173.471L389.959 198.234L380.682 222.996L389.959 247.759L380.682 272.522L389.959 297.284L380.682 322.047L389.959 346.809L380.642 371.683L380.184 371.472L389.411 346.809L380.144 322.047Z" fill="#287E74" fill-opacity="0.36"/>
<path d="M388.982 322.047L398.259 297.284L388.982 272.522L398.259 247.759L388.982 222.996L398.259 198.234L388.982 173.471L398.259 148.709L388.982 123.946L398.259 99.1723L388.982 74.4097L398.259 49.6471L388.982 24.8734L398.299 -2.17558e-08L398.757 0.21051L389.519 24.8734L398.797 49.6471L389.519 74.4097L398.797 99.1723L389.519 123.946L398.797 148.709L389.519 173.471L398.797 198.234L389.519 222.996L398.797 247.759L389.519 272.522L398.797 297.284L389.519 322.047L398.797 346.809L389.48 371.683L389.022 371.472L398.259 346.809L388.982 322.047Z" fill="#287E74" fill-opacity="0.36"/>
<path d="M397.822 322.047L407.099 297.284L397.822 272.522L407.099 247.759L397.822 222.996L407.099 198.234L397.822 173.471L407.099 148.709L397.822 123.946L407.099 99.1723L397.822 74.4097L407.099 49.6471L397.822 24.8734L407.139 -2.17558e-08L407.597 0.21051L398.369 24.8734L407.637 49.6471L398.369 74.4097L407.637 99.1723L398.369 123.946L407.637 148.709L398.369 173.471L407.637 198.234L398.369 222.996L407.637 247.759L398.369 272.522L407.637 297.284L398.369 322.047L407.637 346.809L398.329 371.683L397.862 371.472L407.099 346.809L397.822 322.047Z" fill="#287E74" fill-opacity="0.36"/>
<path d="M406.662 322.047L415.939 297.284L406.662 272.522L415.939 247.759L406.662 222.996L415.939 198.234L406.662 173.471L415.939 148.709L406.662 123.946L415.939 99.1723L406.662 74.4097L415.939 49.6471L406.662 24.8734L415.979 -2.17558e-08L416.437 0.21051L407.209 24.8734L416.477 49.6471L407.209 74.4097L416.477 99.1723L407.209 123.946L416.477 148.709L407.209 173.471L416.477 198.234L407.209 222.996L416.477 247.759L407.209 272.522L416.477 297.284L407.209 322.047L416.477 346.809L407.169 371.683L406.701 371.472L415.939 346.809L406.662 322.047Z" fill="#287E74" fill-opacity="0.36"/>
</svg>
